<?xml version="1.0" encoding="UTF-8"?>
<svg version="1.1" xmlns="http://www.w3.org/2000/svg" width="500" height="500">
<path d="M0 0 C0.83243225 0.02580643 1.6648645 0.05161285 2.52252197 0.07820129 C3.81250092 0.0888134 3.81250092 0.0888134 5.12854004 0.09963989 C7.87013448 0.12758643 10.60967198 0.19032274 13.35064697 0.25398254 C15.21129452 0.2790652 17.07197414 0.30187843 18.93267822 0.32234192 C23.48945803 0.37741368 28.04470401 0.463686 32.60064697 0.56648254 C32.03828483 4.92528595 30.47247591 7.67382185 28.02252197 11.29304504 C27.65931854 11.83421967 27.29611511 12.37539429 26.92190552 12.93296814 C25.73912254 14.69109971 24.5450444 16.44122565 23.35064697 18.19148254 C22.53143528 19.40488447 21.7129178 20.61875536 20.89508057 21.83308411 C15.53517136 29.77786621 10.13339543 37.69650077 4.66217041 45.5650177 C1.7391874 49.79112323 -0.91443282 54.06771705 -3.39935303 58.56648254 C-4.05935303 58.56648254 -4.71935303 58.56648254 -5.39935303 58.56648254 C-5.01190918 59.17532288 -4.62446533 59.78416321 -4.22528076 60.41145325 C-1.19866943 65.16755676 1.82794189 69.92366028 4.85455322 74.67976379 C5.47080566 75.64801086 6.08705811 76.61625793 6.72198486 77.61384583 C7.98994624 79.60666258 9.2573485 81.59983519 10.52423096 83.59333801 C11.13726074 84.5577179 11.75029053 85.52209778 12.38189697 86.51570129 C12.93039307 87.37897034 13.47888916 88.24223938 14.04400635 89.13166809 C15.92440563 92.07288861 17.83229057 94.99521495 19.75299072 97.91023254 C20.60064697 99.56648254 20.60064697 99.56648254 20.60064697 102.56648254 C21.26064697 102.56648254 21.92064697 102.56648254 22.60064697 102.56648254 C22.8919751 103.10015442 23.18330322 103.63382629 23.48345947 104.18367004 C27.38400351 111.27333813 31.32911175 118.37076619 35.97564697 125.00398254 C37.60064697 127.56648254 37.60064697 127.56648254 37.60064697 130.56648254 C38.26064697 130.56648254 38.92064697 130.56648254 39.60064697 130.56648254 C42.60064697 134.95109793 42.60064697 134.95109793 42.60064697 137.56648254 C40.62064697 136.57648254 40.62064697 136.57648254 38.60064697 135.56648254 C38.60064697 134.90648254 38.60064697 134.24648254 38.60064697 133.56648254 C37.94064697 133.56648254 37.28064697 133.56648254 36.60064697 133.56648254 C35.33892822 132.13288879 35.33892822 132.13288879 33.91314697 130.12898254 C31.03098611 126.13665602 28.00810928 122.2848448 24.92095947 118.44929504 C23.60064697 116.56648254 23.60064697 116.56648254 23.60064697 114.56648254 C22.94064697 114.56648254 22.28064697 114.56648254 21.60064697 114.56648254 C20.33892822 113.13288879 20.33892822 113.13288879 18.91314697 111.12898254 C16.03098611 107.13665602 13.00810928 103.2848448 9.92095947 99.44929504 C8.60064697 97.56648254 8.60064697 97.56648254 8.60064697 95.56648254 C7.94064697 95.56648254 7.28064697 95.56648254 6.60064697 95.56648254 C4.96634947 93.47198574 3.45897463 91.38866164 1.97564697 89.19148254 C1.5554126 88.58820129 1.13517822 87.98492004 0.70220947 87.36335754 C-2.39935303 82.83185389 -2.39935303 82.83185389 -2.39935303 80.56648254 C-3.05935303 80.56648254 -3.71935303 80.56648254 -4.39935303 80.56648254 C-8.39935303 75.2723649 -8.39935303 75.2723649 -8.39935303 71.56648254 C-9.05935303 71.56648254 -9.71935303 71.56648254 -10.39935303 71.56648254 C-10.72935303 70.24648254 -11.05935303 68.92648254 -11.39935303 67.56648254 C-12.05935303 67.56648254 -12.71935303 67.56648254 -13.39935303 67.56648254 C-17.42568705 62.6198436 -17.42568705 62.6198436 -17.33685303 59.06648254 C-16.22804249 56.10965445 -14.88816936 53.34992177 -13.39935303 50.56648254 C-12.73935303 50.56648254 -12.07935303 50.56648254 -11.39935303 50.56648254 C-11.16474365 49.88714661 -10.93013428 49.20781067 -10.68841553 48.50788879 C-9.10381012 44.89210736 -6.99561249 41.74777291 -4.77435303 38.50398254 C-3.87561198 37.17866751 -2.977179 35.85314351 -2.07904053 34.52742004 C-1.63012451 33.86709778 -1.1812085 33.20677551 -0.71868896 32.52644348 C0.53115658 30.66971512 1.75477486 28.79895736 2.96783447 26.91804504 C3.6716626 25.83265442 4.37549072 24.74726379 5.10064697 23.62898254 C5.72970947 22.65058411 6.35877197 21.67218567 7.00689697 20.66413879 C7.53283447 19.97191223 8.05877197 19.27968567 8.60064697 18.56648254 C9.26064697 18.56648254 9.92064697 18.56648254 10.60064697 18.56648254 C10.91002197 17.76210754 11.21939697 16.95773254 11.53814697 16.12898254 C12.60064697 13.56648254 12.60064697 13.56648254 13.60064697 12.56648254 C9.31064697 12.23648254 5.02064697 11.90648254 0.60064697 11.56648254 C-1.6329468 14.87607007 -3.86129815 18.18899521 -6.08685303 21.50398254 C-6.71269287 22.43017395 -7.33853271 23.35636536 -7.9833374 24.31062317 C-11.74539496 29.92416455 -15.23624038 35.59376531 -18.39935303 41.56648254 C-19.05935303 41.56648254 -19.71935303 41.56648254 -20.39935303 41.56648254 C-20.61591553 42.49460754 -20.61591553 42.49460754 -20.83685303 43.44148254 C-21.39935303 45.56648254 -21.39935303 45.56648254 -22.39935303 47.56648254 C-23.05935303 47.56648254 -23.71935303 47.56648254 -24.39935303 47.56648254 C-24.39935303 48.55648254 -24.39935303 49.54648254 -24.39935303 50.56648254 C-27.76236571 49.17489109 -29.91826284 47.96427767 -31.39935303 44.56648254 C-29.71522396 36.14583721 -24.80795155 28.79949252 -20.50970459 21.46540833 C-19.50968355 19.75517006 -18.52759822 18.03447463 -17.54779053 16.31257629 C-17.02443115 15.40636536 -16.50107178 14.50015442 -15.96185303 13.56648254 C-15.28316162 12.39085754 -15.28316162 12.39085754 -14.59075928 11.19148254 C-14.19759521 10.65523254 -13.80443115 10.11898254 -13.39935303 9.56648254 C-12.73935303 9.56648254 -12.07935303 9.56648254 -11.39935303 9.56648254 C-11.31685303 9.00960754 -11.23435303 8.45273254 -11.14935303 7.87898254 C-9.1239197 1.63389646 -6.20275274 -0.00300125 0 0 Z " fill="#6996D8" transform="translate(289.39935302734375,197.4335174560547)"/>
<path d="M0 0 C3.37805989 1.12601996 3.82680841 1.78361872 5.8046875 4.59375 C8.76617354 8.69567274 11.90617556 12.5988304 15.125 16.5 C21.18423958 23.9020461 26.97779687 31.47586481 32.65283203 39.17529297 C33.93736023 40.91515591 35.23114582 42.64772876 36.52734375 44.37890625 C37.62755859 45.86197266 37.62755859 45.86197266 38.75 47.375 C39.38421875 48.22835937 40.0184375 49.08171875 40.671875 49.9609375 C42 52 42 52 42 54 C42.66 54 43.32 54 44 54 C45.38867188 55.6965332 45.38867188 55.6965332 46.96875 58.05078125 C47.53980469 58.89447266 48.11085937 59.73816406 48.69921875 60.60742188 C49.29347656 61.50009766 49.88773438 62.39277344 50.5 63.3125 C51.09425781 64.19357422 51.68851563 65.07464844 52.30078125 65.98242188 C53.8738889 68.31722612 55.43923601 70.65693325 57 73 C57.99 74.485 57.99 74.485 59 76 C57.76866929 85.56473668 49.23202791 94.80080518 43.9375 102.625 C37.13254548 112.60346221 37.13254548 112.60346221 31 123 C35.40914783 124.10228696 39.48382401 124.07654536 44 124 C44.495 122.515 44.495 122.515 45 121 C45.66 121 46.32 121 47 121 C47.11472656 120.42894531 47.22945312 119.85789062 47.34765625 119.26953125 C48.64451135 114.75771798 51.50434877 110.93602709 54 107 C54.39493652 106.37432129 54.78987305 105.74864258 55.19677734 105.10400391 C56.49377981 103.06106469 57.80685647 101.02935282 59.125 99 C59.54450928 98.34088623 59.96401855 97.68177246 60.39624023 97.00268555 C62.5537443 93.72660189 64.18150811 91.26696505 68 90 C70.04606333 91.69022623 70.94459329 92.83804192 71.8125 95.375 C72.03213229 98.449852 71.33398037 100.25356983 70 103 C69.34 103 68.68 103 68 103 C67.88527344 103.56203125 67.77054687 104.1240625 67.65234375 104.703125 C65.00692164 114.01754535 56.93815127 128.06184873 50 135 C47.04294679 135.08868299 44.10934944 135.11520296 41.15234375 135.09765625 C39.82270348 135.09553383 39.82270348 135.09553383 38.46620178 135.09336853 C35.62326746 135.08775215 32.78041069 135.07519691 29.9375 135.0625 C28.01497509 135.05748711 26.09244896 135.05292384 24.16992188 135.04882812 C19.44658451 135.03777741 14.72330542 135.02050183 10 135 C10.56371295 130.86053753 11.88749821 128.27247297 14.25390625 124.8515625 C14.93646484 123.85648682 15.61902344 122.86141113 16.32226562 121.83618164 C17.43118164 120.24664673 17.43118164 120.24664673 18.5625 118.625 C19.32427004 117.52058501 20.08532871 116.41567905 20.84570312 115.31030273 C23.21928881 111.86572252 25.60892394 108.43245117 28 105 C28.78511966 103.87101872 29.57011458 102.74195069 30.35498047 101.61279297 C36.29064371 93.07539131 36.29064371 93.07539131 39.08422852 89.08642578 C39.71643311 88.18263184 40.3486377 87.27883789 41 86.34765625 C41.556875 85.55367432 42.11375 84.75969238 42.6875 83.94165039 C44.03402437 82.04061515 44.03402437 82.04061515 45 80 C45.66 80 46.32 80 47 80 C45.57812246 74.90624089 43.30372454 71.0698687 40.375 66.75 C36 60.25460123 36 60.25460123 36 58 C35.34 58 34.68 58 34 58 C32.625 55.90234375 32.625 55.90234375 31 52.9375 C28.15685989 47.90549889 25.12124834 43.09317391 21.875 38.3125 C18.730339 33.66740316 15.78366434 29.02741853 13.16015625 24.0625 C11.36830817 20.8769923 9.25408378 17.92135706 7.13671875 14.9453125 C6 13 6 13 6 10 C5.34 10 4.68 10 4 10 C0 3.375 0 3.375 0 0 Z " fill="#80ABEC" transform="translate(199,181)"/>
<path d="M0 0 C0.83243225 0.02580643 1.6648645 0.05161285 2.52252197 0.07820129 C3.81250092 0.0888134 3.81250092 0.0888134 5.12854004 0.09963989 C7.87013448 0.12758643 10.60967198 0.19032274 13.35064697 0.25398254 C15.21129452 0.2790652 17.07197414 0.30187843 18.93267822 0.32234192 C23.48945803 0.37741368 28.04470401 0.463686 32.60064697 0.56648254 C32.05883117 5.08353746 30.14350515 8.24164537 27.63580322 11.92585754 C27.24243271 12.51570435 26.84906219 13.10555115 26.44377136 13.71327209 C25.61457359 14.95289334 24.78144883 16.18989578 23.94464111 17.4243927 C22.66196376 19.31822952 21.3931735 21.22081514 20.1260376 23.12507629 C13.88791264 32.42284971 13.88791264 32.42284971 11.60064697 33.56648254 C11.60064697 31.58648254 11.60064697 29.60648254 11.60064697 27.56648254 C12.59064697 27.23648254 13.58064697 26.90648254 14.60064697 26.56648254 C14.93064697 25.90648254 15.26064697 25.24648254 15.60064697 24.56648254 C16.26064697 24.56648254 16.92064697 24.56648254 17.60064697 24.56648254 C16.94064697 21.92648254 16.28064697 19.28648254 15.60064697 16.56648254 C15.16752197 17.06148254 14.73439697 17.55648254 14.28814697 18.06648254 C12.60064697 19.56648254 12.60064697 19.56648254 9.60064697 19.56648254 C9.45627197 20.78335754 9.31189697 22.00023254 9.16314697 23.25398254 C8.97738769 24.69170852 8.78997077 26.12922161 8.60064697 27.56648254 C8.41502197 28.98960754 8.41502197 28.98960754 8.22564697 30.44148254 C7.60064697 32.56648254 7.60064697 32.56648254 4.60064697 34.56648254 C4.60064697 33.90648254 4.60064697 33.24648254 4.60064697 32.56648254 C0.97270699 34.43214742 0.97270699 34.43214742 -1.39935303 37.56648254 C-2.05935303 37.23648254 -2.71935303 36.90648254 -3.39935303 36.56648254 C-1.45219121 33.55909068 0.51016681 30.56192829 2.47564697 27.56648254 C3.30902588 26.27870911 3.30902588 26.27870911 4.15924072 24.96492004 C4.69420166 24.15281067 5.2291626 23.34070129 5.78033447 22.50398254 C6.27259521 21.74988098 6.76485596 20.99577942 7.27203369 20.21882629 C7.71047607 19.67355286 8.14891846 19.12827942 8.60064697 18.56648254 C9.26064697 18.56648254 9.92064697 18.56648254 10.60064697 18.56648254 C10.91002197 17.76210754 11.21939697 16.95773254 11.53814697 16.12898254 C12.60064697 13.56648254 12.60064697 13.56648254 13.60064697 12.56648254 C9.31064697 12.23648254 5.02064697 11.90648254 0.60064697 11.56648254 C-1.6329468 14.87607007 -3.86129815 18.18899521 -6.08685303 21.50398254 C-6.71269287 22.43017395 -7.33853271 23.35636536 -7.9833374 24.31062317 C-11.74539496 29.92416455 -15.23624038 35.59376531 -18.39935303 41.56648254 C-19.05935303 41.56648254 -19.71935303 41.56648254 -20.39935303 41.56648254 C-20.61591553 42.49460754 -20.61591553 42.49460754 -20.83685303 43.44148254 C-21.39935303 45.56648254 -21.39935303 45.56648254 -22.39935303 47.56648254 C-23.05935303 47.56648254 -23.71935303 47.56648254 -24.39935303 47.56648254 C-24.39935303 48.55648254 -24.39935303 49.54648254 -24.39935303 50.56648254 C-27.76236571 49.17489109 -29.91826284 47.96427767 -31.39935303 44.56648254 C-29.71522396 36.14583721 -24.80795155 28.79949252 -20.50970459 21.46540833 C-19.50968355 19.75517006 -18.52759822 18.03447463 -17.54779053 16.31257629 C-17.02443115 15.40636536 -16.50107178 14.50015442 -15.96185303 13.56648254 C-15.28316162 12.39085754 -15.28316162 12.39085754 -14.59075928 11.19148254 C-14.19759521 10.65523254 -13.80443115 10.11898254 -13.39935303 9.56648254 C-12.73935303 9.56648254 -12.07935303 9.56648254 -11.39935303 9.56648254 C-11.31685303 9.00960754 -11.23435303 8.45273254 -11.14935303 7.87898254 C-9.1239197 1.63389646 -6.20275274 -0.00300125 0 0 Z " fill="#3987F6" transform="translate(289.39935302734375,197.4335174560547)"/>
<path d="M0 0 C3.37805989 1.12601996 3.82680841 1.78361872 5.8046875 4.59375 C8.76617354 8.69567274 11.90617556 12.5988304 15.125 16.5 C21.18423958 23.9020461 26.97779687 31.47586481 32.65283203 39.17529297 C33.93736023 40.91515591 35.23114582 42.64772876 36.52734375 44.37890625 C37.62755859 45.86197266 37.62755859 45.86197266 38.75 47.375 C39.38421875 48.22835937 40.0184375 49.08171875 40.671875 49.9609375 C42 52 42 52 42 54 C42.66 54 43.32 54 44 54 C45.32861328 55.65234375 45.32861328 55.65234375 46.8203125 57.9375 C47.35527344 58.74960938 47.89023438 59.56171875 48.44140625 60.3984375 C48.99699219 61.25695312 49.55257812 62.11546875 50.125 63 C50.68832031 63.85851562 51.25164062 64.71703125 51.83203125 65.6015625 C53.22760249 67.73039998 54.61655555 69.86326974 56 72 C55.01 72.495 55.01 72.495 54 73 C53.505 74.485 53.505 74.485 53 76 C52.01 76.33 51.02 76.66 50 77 C49.505 77.99 49.01 78.98 48.5 80 C48.005 80.99 47.51 81.98 47 83 C46.01 83.33 45.02 83.66 44 84 C44 84.66 44 85.32 44 86 C43.01 85.505 43.01 85.505 42 85 C43.375 82.5 43.375 82.5 45 80 C45.66 80 46.32 80 47 80 C45.57812246 74.90624089 43.30372454 71.0698687 40.375 66.75 C36 60.25460123 36 60.25460123 36 58 C35.34 58 34.68 58 34 58 C32.625 55.90234375 32.625 55.90234375 31 52.9375 C28.15685989 47.90549889 25.12124834 43.09317391 21.875 38.3125 C18.730339 33.66740316 15.78366434 29.02741853 13.16015625 24.0625 C11.36830817 20.8769923 9.25408378 17.92135706 7.13671875 14.9453125 C6 13 6 13 6 10 C5.34 10 4.68 10 4 10 C0 3.375 0 3.375 0 0 Z " fill="#598FDB" transform="translate(199,181)"/>
<path d="M0 0 C4.37377416 2.55824526 8.29471534 5.92093343 9.9609375 10.859375 C11.11250298 17.66640648 10.90838593 23.90569134 7.3125 29.9375 C3.89466064 34.13384722 0.72802493 36.22381816 -4.6875 36.875 C-10.97138328 37.13245804 -16.59442994 36.95834478 -21.6875 32.9375 C-25.66001083 28.80788422 -27.4387264 24.92859851 -27.75 19.19921875 C-27.57050631 12.7037907 -25.88216024 8.17424199 -21.3828125 3.4140625 C-15.07087978 -2.08342729 -7.64515244 -2.20284053 0 0 Z M-18.6875 7.9375 C-21.30076757 11.92208619 -23.6812972 16.09273867 -22.6875 20.9375 C-21.49144448 23.39147599 -20.14342452 25.6171203 -18.6875 27.9375 C-18.0275 27.9375 -17.3675 27.9375 -16.6875 27.9375 C-16.6875 28.5975 -16.6875 29.2575 -16.6875 29.9375 C-12.97391689 32.41322207 -8.99731131 32.62673765 -4.6875 31.9375 C-0.0560203 29.40329412 3.62282562 27.00652315 5.3125 21.9375 C5.70759723 16.70246164 5.24630851 13.33821276 2.3125 8.9375 C-1.24888891 5.63670052 -4.00468366 4.6624141 -8.75 4.5 C-12.86190239 4.70343745 -15.59460283 5.02653795 -18.6875 7.9375 Z " fill="#797879" transform="translate(401.6875,242.0625)"/>
<path d="M0 0 C0.5775 0.226875 1.155 0.45375 1.75 0.6875 C2.74258762 3.19353806 3.05380254 4.95026714 2.01074219 7.48144531 C0.78594554 9.64392649 -0.52082166 11.72850462 -1.875 13.8125 C-2.36484375 14.58859619 -2.8546875 15.36469238 -3.359375 16.16430664 C-8.24588431 23.83707778 -13.33595581 31.3828306 -18.5 38.87109375 C-18.95890625 39.53681396 -19.4178125 40.20253418 -19.890625 40.88842773 C-21.22438134 42.65359484 -22.64774275 44.16565015 -24.25 45.6875 C-24.25 44.0375 -24.25 42.3875 -24.25 40.6875 C-25.24 40.6875 -26.23 40.6875 -27.25 40.6875 C-27.25 41.3475 -27.25 42.0075 -27.25 42.6875 C-27.91 42.6875 -28.57 42.6875 -29.25 42.6875 C-29.58 43.6775 -29.91 44.6675 -30.25 45.6875 C-31.24 45.3575 -32.23 45.0275 -33.25 44.6875 C-33.6625 45.491875 -34.075 46.29625 -34.5 47.125 C-36.25 49.6875 -36.25 49.6875 -38.359375 50.34765625 C-38.98328125 50.45980469 -39.6071875 50.57195312 -40.25 50.6875 C-36.73255991 43.9941581 -32.70556331 37.83495135 -28.3125 31.6875 C-27.114881 30.00071268 -25.91825892 28.3132171 -24.72265625 26.625 C-23.85278076 25.40490234 -23.85278076 25.40490234 -22.96533203 24.16015625 C-20.73460367 20.94455465 -18.65756019 17.63777538 -16.60717773 14.3046875 C-15.93537476 13.50417969 -15.93537476 13.50417969 -15.25 12.6875 C-14.26 12.6875 -13.27 12.6875 -12.25 12.6875 C-12.25 12.0275 -12.25 11.3675 -12.25 10.6875 C-10.91666667 9.35416667 -9.58333333 8.02083333 -8.25 6.6875 C-7.92 6.006875 -7.59 5.32625 -7.25 4.625 C-5.60258383 1.43313116 -3.69721168 -0.51350162 0 0 Z " fill="#6CA5F9" transform="translate(255.25,254.3125)"/>
<path d="M0 0 C0.99 0 1.98 0 3 0 C3.495 4.455 3.495 4.455 4 9 C3.34 9 2.68 9 2 9 C1.67 9.99 1.34 10.98 1 12 C0.34 12 -0.32 12 -1 12 C-1.0515625 12.59425781 -1.103125 13.18851563 -1.15625 13.80078125 C-2.25624792 21.83826608 -6.02214049 26.77290754 -11 33 C-14.5637652 37.68319422 -14.5637652 37.68319422 -17 43 C-17.66 43 -18.32 43 -19 43 C-18.34 46.3 -17.68 49.6 -17 53 C-26.26089626 52.7562922 -26.26089626 52.7562922 -29.6875 49.25 C-31.13546755 45.66455654 -31.33460345 44.55894252 -30 41 C-29.04605164 38.97762948 -28.05464649 36.9717304 -27 35 C-26.34 35 -25.68 35 -25 35 C-24.773125 34.34 -24.54625 33.68 -24.3125 33 C-23.18777446 30.42919876 -21.98486244 28.09951824 -20.5625 25.6875 C-19.94568359 24.64142578 -19.94568359 24.64142578 -19.31640625 23.57421875 C-18.66478516 22.79498047 -18.66478516 22.79498047 -18 22 C-17.01 22 -16.02 22 -15 22 C-14.67 21.01 -14.34 20.02 -14 19 C-11.56723614 17.81480735 -9.71982714 17 -7 17 C-6.855625 16.2575 -6.71125 15.515 -6.5625 14.75 C-6.09777139 12.47799345 -5.57922857 10.24451072 -5 8 C-4.87625 7.278125 -4.7525 6.55625 -4.625 5.8125 C-4.315625 4.9153125 -4.315625 4.9153125 -4 4 C-3.01 3.67 -2.02 3.34 -1 3 C-0.67 2.01 -0.34 1.02 0 0 Z " fill="#5D9CFB" transform="translate(303,213)"/>
<path d="M0 0 C2.39774745 -0.13572155 4.78775245 -0.23436868 7.1875 -0.3125 C8.19780273 -0.3753418 8.19780273 -0.3753418 9.22851562 -0.43945312 C13.26303321 -0.53785599 14.79311935 -0.17373555 17.92578125 2.45703125 C18.61027344 3.29621094 19.29476563 4.13539063 20 5 C20.33 5.33 20.66 5.66 21 6 C21.12502261 9.75067816 21.22468891 13.03383768 20.375 16.6875 C19.77781014 19.05611621 19.77781014 19.05611621 21 21.3125 C22.35993732 24.96733155 22.27874681 28.30339285 21 32 C18.71660946 35.10718034 17.4782033 35.90793052 13.65234375 36.64453125 C12.42644531 36.69996094 11.20054687 36.75539063 9.9375 36.8125 C8.70902344 36.88082031 7.48054688 36.94914062 6.21484375 37.01953125 C3 37 3 37 0 36 C0 34.68 0 33.36 0 32 C0.74765625 31.93941406 1.4953125 31.87882812 2.265625 31.81640625 C3.74289062 31.69072266 3.74289062 31.69072266 5.25 31.5625 C6.22453125 31.48128906 7.1990625 31.40007812 8.203125 31.31640625 C10.56461753 31.04925416 12.71901065 30.64628032 15 30 C15.04241723 27.66705225 15.04092937 25.33297433 15 23 C13.05909174 21.05909174 9.52706098 21.60080565 6.9375 21.4375 C5.64714844 21.35371094 4.35679687 21.26992188 3.02734375 21.18359375 C1.52880859 21.09271484 1.52880859 21.09271484 0 21 C0 19.02 0 17.04 0 15 C0.92683594 14.93941406 1.85367187 14.87882812 2.80859375 14.81640625 C4.00613281 14.73261719 5.20367187 14.64882813 6.4375 14.5625 C8.22994141 14.44068359 8.22994141 14.44068359 10.05859375 14.31640625 C12.88570244 14.32343886 12.88570244 14.32343886 14 13 C14.33343551 10.54207971 14.33343551 10.54207971 14 8 C10.71508627 5.81005752 9.16904361 5.64722661 5.3125 5.375 C3.82169922 5.26285156 3.82169922 5.26285156 2.30078125 5.1484375 C1.54152344 5.09945312 0.78226562 5.05046875 0 5 C0 3.35 0 1.7 0 0 Z " fill="#878585" transform="translate(332,242)"/>
<path d="M0 0 C2.26953125 0.046875 2.26953125 0.046875 5 1 C6.49455112 3.45597578 7.60187247 5.62372111 8.6875 8.25 C8.98205078 8.91902344 9.27660156 9.58804688 9.58007812 10.27734375 C10.41001519 12.17594135 11.20664322 14.08590256 12 16 C12.39832031 16.90234375 12.79664063 17.8046875 13.20703125 18.734375 C14 21 14 21 14 25 C11.52621876 26.23689062 9.82084683 26.13310087 7.0625 26.125 C6.18722656 26.12757813 5.31195313 26.13015625 4.41015625 26.1328125 C2 26 2 26 -1 25 C-0.67 23.68 -0.34 22.36 0 21 C1.98 20.67 3.96 20.34 6 20 C4.48134786 15.70111387 4.48134786 15.70111387 2 12 C1.52949219 13.15757812 1.05898437 14.31515625 0.57421875 15.5078125 C-0.05456503 17.04692504 -0.68347814 18.58598475 -1.3125 20.125 C-1.62123047 20.88554687 -1.92996094 21.64609375 -2.24804688 22.4296875 C-6.9761063 33.9761063 -6.9761063 33.9761063 -9 36 C-10.66617115 36.04063832 -12.33388095 36.042721 -14 36 C-13.39227733 31.2684449 -12.0642917 27.27980098 -10.25 22.875 C-9.98413086 22.2262793 -9.71826172 21.57755859 -9.44433594 20.90917969 C-8.89924859 19.58186926 -8.35140618 18.25568684 -7.80078125 16.93066406 C-7.04603406 15.11098699 -6.30385165 13.28611302 -5.5625 11.4609375 C-2.26886792 3.40330189 -2.26886792 3.40330189 0 0 Z " fill="#6D6C6C" transform="translate(194,242)"/>
<path d="M0 0 C2.30859375 0.03125 2.30859375 0.03125 5 1 C6.29693967 3.5633631 7.20256669 5.79336447 8.0625 8.5 C8.56433209 9.95904838 9.06823028 11.41738781 9.57421875 12.875 C9.81446777 13.58269531 10.0547168 14.29039062 10.30224609 15.01953125 C11.63049135 18.78955417 13.31823791 22.37774319 15 26 C16.82653728 23.26019407 17.84963033 20.98965769 18.98828125 17.9296875 C19.36533203 16.95128906 19.74238281 15.97289062 20.13085938 14.96484375 C20.91974636 12.90200208 21.69578079 10.83420004 22.45898438 8.76171875 C22.83990234 7.78589844 23.22082031 6.81007812 23.61328125 5.8046875 C23.95141846 4.90733887 24.28955566 4.00999023 24.63793945 3.08544922 C26 1 26 1 28.64916992 0.19970703 C29.42494385 0.13380371 30.20071777 0.06790039 31 0 C31.33820735 5.07311022 30.16319007 9.03866951 28.3125 13.6875 C28.04284424 14.38576904 27.77318848 15.08403809 27.49536133 15.8034668 C25.50061658 20.90544389 23.32387252 25.91103963 20.98046875 30.86328125 C19.90409768 33.10730729 19.90409768 33.10730729 19 36 C17.02 36 15.04 36 13 36 C9.37280538 29.30126611 6.64371926 22.51358332 4.2109375 15.296875 C3.05874124 11.95768645 3.05874124 11.95768645 1.36328125 8.7890625 C-0.18431817 5.62291354 -0.24849425 3.47891944 0 0 Z " fill="#82817B" transform="translate(35,242)"/>
<path d="M0 0 C1.32 0.66 2.64 1.32 4 2 C4 2.66 4 3.32 4 4 C3.34 4 2.68 4 2 4 C1.896875 4.680625 1.79375 5.36125 1.6875 6.0625 C0.85274981 9.62915989 -0.49472754 12.66222194 -2 16 C-1.34 15.67 -0.68 15.34 0 15 C0.65213292 12.97536745 0.65213292 12.97536745 1 11 C2.65 10.67 4.3 10.34 6 10 C5.48690943 14.8193864 3.15928188 18.21429135 0.5 22.125 C-2.71319108 26.81638836 -2.71319108 26.81638836 -5 32 C-5.66 32 -6.32 32 -7 32 C-7.2165625 32.928125 -7.2165625 32.928125 -7.4375 33.875 C-8 36 -8 36 -9 38 C-9.66 38 -10.32 38 -11 38 C-11 38.99 -11 39.98 -11 41 C-14.36301268 39.60840855 -16.51890982 38.39779513 -18 35 C-15.5166477 22.58323851 -6.5310997 10.65465677 0 0 Z " fill="#4E87DE" transform="translate(276,207)"/>
<path d="M0 0 C9.52138811 -0.38142059 15.63170281 -0.36094585 22.875 6.25 C26.98797033 11.19655675 26.92083429 16.18810022 26.62890625 22.41796875 C25.60808746 28.23219753 23.08398599 31.82264878 18.3125 35.19140625 C14.83427545 36.40760977 11.38494515 36.20848814 7.75 36.125 C7.00492188 36.11597656 6.25984375 36.10695313 5.4921875 36.09765625 C3.66131941 36.07418358 1.83061762 36.03831525 0 36 C-0.33 35.34 -0.66 34.68 -1 34 C-0.67 33.34 -0.34 32.68 0 32 C2.51171875 31.7265625 2.51171875 31.7265625 5.6875 31.625 C11.10810113 31.25761086 14.00093164 30.68335244 18 27 C20.54688655 22.7905625 20.69453963 18.80175545 20 14 C18.24173427 10.93931522 16.8562846 9.48930548 13.8125 7.75 C10.56673883 6.88446369 7.43193031 6.57214541 4.0859375 6.34375 C2 6 2 6 -1 4 C-0.67 2.68 -0.34 1.36 0 0 Z " fill="#535353" transform="translate(133,242)"/>
<path d="M0 0 C4.61905908 2.7017138 8.48424066 5.82062933 9.90625 11.171875 C10.1875 13.375 10.1875 13.375 10.3125 16.9375 C9.3225 16.6075 8.3325 16.2775 7.3125 15.9375 C6.8175 14.4525 6.8175 14.4525 6.3125 12.9375 C5.6525 13.5975 4.9925 14.2575 4.3125 14.9375 C3.920625 14.009375 3.52875 13.08125 3.125 12.125 C1.06870127 8.50875051 0.17309654 7.41602633 -3.6875 5.9375 C-8.68104627 5.41922419 -14.4116776 4.9978721 -18.6875 7.9375 C-19.92507877 10.90010526 -19.92507877 10.90010526 -20.6875 13.9375 C-21.3475 14.5975 -22.0075 15.2575 -22.6875 15.9375 C-22.6875 15.2775 -22.6875 14.6175 -22.6875 13.9375 C-24.0075 13.9375 -25.3275 13.9375 -26.6875 13.9375 C-26.36619996 8.63604932 -23.46163797 5.38789702 -19.6875 1.9375 C-13.14310967 -1.89035095 -7.13730692 -2.05651216 0 0 Z " fill="#5A5A5A" transform="translate(401.6875,242.0625)"/>
<path d="M0 0 C2 0.125 2 0.125 4 1 C5.57911989 3.18068938 6.10642932 4.31885236 5.6875 7 C5.460625 7.66 5.23375 8.32 5 9 C4.814375 9.7425 4.62875 10.485 4.4375 11.25 C4.293125 11.8275 4.14875 12.405 4 13 C3.34 13 2.68 13 2 13 C1.89042969 13.55429687 1.78085937 14.10859375 1.66796875 14.6796875 C-0.71149552 22.94519495 -6.53745957 30.70485412 -11 38 C-12.14175295 34.24738542 -11.60183973 32.58058293 -10 29 C-10 28.34 -10 27.68 -10 27 C-9.01 27 -8.02 27 -7 27 C-7 23.7 -7 20.4 -7 17 C-7.99 17.33 -8.98 17.66 -10 18 C-11.21869929 20.50447516 -11.21869929 20.50447516 -12 23 C-12.66 22.67 -13.32 22.34 -14 22 C-12.38659413 17.26062027 -9.78869543 13.41984999 -7 9.3125 C-6.32324219 8.29833008 -6.32324219 8.29833008 -5.6328125 7.26367188 C-3.86382663 4.63374466 -2.2477334 2.2477334 0 0 Z " fill="#77A5EA" transform="translate(265,271)"/>
<path d="M0 0 C2.375 0.6875 2.375 0.6875 5 2 C5.33 2.845625 5.66 3.69125 6 4.5625 C6.33 5.366875 6.66 6.17125 7 7 C9.54775306 7.89386164 9.54775306 7.89386164 12 8 C12.33 6.68 12.66 5.36 13 4 C16 7.625 16 7.625 16 11 C16.66 11 17.32 11 18 11 C18.29132813 11.53367187 18.58265625 12.06734375 18.8828125 12.6171875 C22.78335653 19.70685558 26.72846478 26.80428364 31.375 33.4375 C33 36 33 36 33 39 C33.66 39 34.32 39 35 39 C38 43.38461538 38 43.38461538 38 46 C36.68 45.34 35.36 44.68 34 44 C34 43.34 34 42.68 34 42 C33.34 42 32.68 42 32 42 C30.73828125 40.56640625 30.73828125 40.56640625 29.3125 38.5625 C26.43033914 34.57017348 23.40746231 30.71836226 20.3203125 26.8828125 C19 25 19 25 19 23 C18.34 23 17.68 23 17 23 C15.73828125 21.56640625 15.73828125 21.56640625 14.3125 19.5625 C11.43033914 15.57017348 8.40746231 11.71836226 5.3203125 7.8828125 C4 6 4 6 4 4 C3.34 4 2.68 4 2 4 C1.34 2.68 0.68 1.36 0 0 Z " fill="#7391B3" transform="translate(294,289)"/>
<path d="M0 0 C0.99 0 1.98 0 3 0 C3.33 0.99 3.66 1.98 4 3 C3.34 3 2.68 3 2 3 C1.89945312 3.55945313 1.79890625 4.11890625 1.6953125 4.6953125 C-0.36182188 13.45926855 -5.44584135 20.0921396 -11 27 C-11.33 27 -11.66 27 -12 27 C-12 25.02 -12 23.04 -12 21 C-11.01 20.67 -10.02 20.34 -9 20 C-8.67 19.34 -8.34 18.68 -8 18 C-7.34 18 -6.68 18 -6 18 C-6.66 15.36 -7.32 12.72 -8 10 C-8.433125 10.495 -8.86625 10.99 -9.3125 11.5 C-11 13 -11 13 -14 13 C-14.2165625 14.8253125 -14.2165625 14.8253125 -14.4375 16.6875 C-14.62325929 18.12522598 -14.8106762 19.56273906 -15 21 C-15.12375 21.94875 -15.2475 22.8975 -15.375 23.875 C-16 26 -16 26 -19 28 C-19 27.34 -19 26.68 -19 26 C-22.62793998 27.86566488 -22.62793998 27.86566488 -25 31 C-25.66 30.67 -26.32 30.34 -27 30 C-25.05283819 26.99260813 -23.09048016 23.99544574 -21.125 21 C-20.56941406 20.14148438 -20.01382812 19.28296875 -19.44140625 18.3984375 C-18.90644531 17.58632812 -18.37148438 16.77421875 -17.8203125 15.9375 C-17.32805176 15.18339844 -16.83579102 14.42929688 -16.32861328 13.65234375 C-15.8901709 13.10707031 -15.45172852 12.56179687 -15 12 C-14.34 12 -13.68 12 -13 12 C-12.690625 11.195625 -12.38125 10.39125 -12.0625 9.5625 C-11 7 -11 7 -10 6 C-11.299375 5.855625 -12.59875 5.71125 -13.9375 5.5625 C-17.875 5.125 -17.875 5.125 -19 4 C-20.99958364 3.95919217 -23.00045254 3.95745644 -25 4 C-25.33 3.34 -25.66 2.68 -26 2 C-23.08234109 1.89193856 -20.16868875 1.81267123 -17.25 1.75 C-16.0125 1.69972656 -16.0125 1.69972656 -14.75 1.6484375 C-8.57702246 1.54887335 -8.57702246 1.54887335 -5.421875 4.015625 C-4.95265625 4.67046875 -4.4834375 5.3253125 -4 6 C-2.62437146 4.71034824 -1.29233607 3.37310707 0 2 C0 1.34 0 0.68 0 0 Z " fill="#4B8BED" transform="translate(313,204)"/>
<path d="M0 0 C2.32149578 6.96448733 1.92860143 11.34839919 -1 18 C-2.20780805 20.17940271 -3.47334705 22.01535116 -5 24 C-5.33 24 -5.66 24 -6 24 C-6 22.35 -6 20.7 -6 19 C-6.99 19 -7.98 19 -9 19 C-9 19.66 -9 20.32 -9 21 C-9.66 21 -10.32 21 -11 21 C-11.33 21.99 -11.66 22.98 -12 24 C-12.99 23.67 -13.98 23.34 -15 23 C-15.4125 23.804375 -15.825 24.60875 -16.25 25.4375 C-18 28 -18 28 -20.109375 28.66015625 C-20.73328125 28.77230469 -21.3571875 28.88445312 -22 29 C-18.65103031 22.72451175 -15.00335953 16.77290342 -10.9375 10.9375 C-10.42123047 10.16728516 -9.90496094 9.39707031 -9.37304688 8.60351562 C-8.86708984 7.87712891 -8.36113281 7.15074219 -7.83984375 6.40234375 C-7.38988037 5.74741943 -6.93991699 5.09249512 -6.47631836 4.41772461 C-5 3 -5 3 -1 3 C-0.67 2.01 -0.34 1.02 0 0 Z " fill="#759FDF" transform="translate(237,276)"/>
<path d="M0 0 C0.99 0 1.98 0 3 0 C3.33 2.97 3.66 5.94 4 9 C3.34 9 2.68 9 2 9 C1.67 9.99 1.34 10.98 1 12 C0.34 12 -0.32 12 -1 12 C-1.33 13.98 -1.66 15.96 -2 18 C-3.32 18 -4.64 18 -6 18 C-6.0825 18.928125 -6.165 19.85625 -6.25 20.8125 C-7.11491747 24.48839926 -7.94061702 25.02620453 -11 27 C-11 27.66 -11 28.32 -11 29 C-13.375 29.625 -13.375 29.625 -16 30 C-18 28 -18 28 -19 26 C-18.34 26 -17.68 26 -17 26 C-17 24.68 -17 23.36 -17 22 C-16.34 22 -15.68 22 -15 22 C-14.67 21.01 -14.34 20.02 -14 19 C-11.56723614 17.81480735 -9.71982714 17 -7 17 C-6.855625 16.2575 -6.71125 15.515 -6.5625 14.75 C-6.09777139 12.47799345 -5.57922857 10.24451072 -5 8 C-4.87625 7.278125 -4.7525 6.55625 -4.625 5.8125 C-4.41875 5.214375 -4.2125 4.61625 -4 4 C-3.01 3.67 -2.02 3.34 -1 3 C-0.67 2.01 -0.34 1.02 0 0 Z " fill="#5998F9" transform="translate(303,213)"/>
<path d="M0 0 C0.66 0 1.32 0 2 0 C3.03285465 14.68948831 3.03285465 14.68948831 -0.75 19.8125 C-2.91681198 22.29120159 -4.88156803 23.90960233 -8 25 C-10.78824758 25.13997227 -13.46827116 25.1888913 -16.25 25.125 C-16.99507812 25.11597656 -17.74015625 25.10695313 -18.5078125 25.09765625 C-20.33868059 25.07418358 -22.16938238 25.03831525 -24 25 C-24.33 24.34 -24.66 23.68 -25 23 C-24.67 22.34 -24.34 21.68 -24 21 C-21.48828125 20.7265625 -21.48828125 20.7265625 -18.3125 20.625 C-12.81199164 20.27265427 -10.23916977 19.39133581 -6 16 C-3.84375 15.375 -3.84375 15.375 -2 15 C-2.02320313 14.16855469 -2.04640625 13.33710938 -2.0703125 12.48046875 C-2.08835938 11.39378906 -2.10640625 10.30710937 -2.125 9.1875 C-2.14820313 8.10855469 -2.17140625 7.02960938 -2.1953125 5.91796875 C-2 3 -2 3 0 0 Z " fill="#898885" transform="translate(157,253)"/>
<path d="M0 0 C3.36694247 1.12231416 3.80202848 1.74959484 5.76953125 4.546875 C8.92324035 8.91549767 12.2709788 13.08524878 15.6875 17.25 C22.48621383 25.55353698 22.48621383 25.55353698 25 29 C24.67 29.66 24.34 30.32 24 31 C23.01 30.67 22.02 30.34 21 30 C21 29.34 21 28.68 21 28 C20.34 28 19.68 28 19 28 C19.33 29.65 19.66 31.3 20 33 C21.485 33.495 21.485 33.495 23 34 C22.34 34.99 21.68 35.98 21 37 C20.41992188 36.02160156 19.83984375 35.04320312 19.2421875 34.03515625 C18.45365383 32.71062253 17.66455338 31.38642612 16.875 30.0625 C16.46773682 29.37897461 16.06047363 28.69544922 15.64086914 27.99121094 C12.91925683 23.45250797 10.07587952 19.04106729 6.99609375 14.734375 C6 13 6 13 6 10 C5.34 10 4.68 10 4 10 C0 3.375 0 3.375 0 0 Z " fill="#3F72B6" transform="translate(199,181)"/>
<path d="M0 0 C0.66 0.33 1.32 0.66 2 1 C1.855625 1.70125 1.71125 2.4025 1.5625 3.125 C0.98521625 6.07556141 0.48304859 9.03270151 0 12 C-0.99 12 -1.98 12 -3 12 C-2.67 12.99 -2.34 13.98 -2 15 C-2.7421875 17.6640625 -2.7421875 17.6640625 -3.875 20.625 C-4.42800781 22.09839844 -4.42800781 22.09839844 -4.9921875 23.6015625 C-6 26 -6 26 -7 27 C-8.66617115 27.04063832 -10.33388095 27.042721 -12 27 C-11.67 26.01 -11.34 25.02 -11 24 C-11.66 23.01 -12.32 22.02 -13 21 C-12.505 19.515 -12.505 19.515 -12 18 C-11.34 18 -10.68 18 -10 18 C-9.87625 17.29875 -9.7525 16.5975 -9.625 15.875 C-8.96161655 12.82343613 -8.02788045 9.94659062 -7 7 C-6.34 7 -5.68 7 -5 7 C-4.731875 6.21625 -4.46375 5.4325 -4.1875 4.625 C-3 2 -3 2 0 0 Z " fill="#80B2FB" transform="translate(258,286)"/>
<path d="M0 0 C1.98 0.495 1.98 0.495 4 1 C4 2.32 4 3.64 4 5 C4.66 5 5.32 5 6 5 C6.60642538 6.81927613 7.17901328 8.65095738 7.6875 10.5 C9.45108959 13.85921826 11.56769458 14.58230863 15 16 C14.34 17.32 13.68 18.64 13 20 C13.99 20.33 14.98 20.66 16 21 C18.1385485 23.1385485 18.42655063 24.13275314 19 27 C16.6875 26.8125 16.6875 26.8125 14 26 C12.97388051 24.34928604 11.97691857 22.68029994 11 21 C10.05125 20.38125 9.1025 19.7625 8.125 19.125 C3.67042001 16.09588561 0.83439131 12.50317393 -0.875 7.375 C-1.01343818 4.74467453 -0.65435808 2.54472585 0 0 Z " fill="#6EA9FA" transform="translate(287,270)"/>
<path d="M0 0 C7.59 0 15.18 0 23 0 C23 1.98 23 3.96 23 6 C15.41 6 7.82 6 0 6 C0 4.02 0 2.04 0 0 Z " fill="#4D4D4C" transform="translate(87,242)"/>
<path d="M0 0 C0.66 0 1.32 0 2 0 C2.66 0.66 3.32 1.32 4 2 C4.75667969 2.39832031 5.51335937 2.79664063 6.29296875 3.20703125 C9.79199669 5.52456924 11.85694535 8.32975639 14.3125 11.6875 C14.76689453 12.29400391 15.22128906 12.90050781 15.68945312 13.52539062 C16.80080732 15.01109571 17.90150265 16.5047638 19 18 C18.67 18.66 18.34 19.32 18 20 C17.01 20 16.02 20 15 20 C14 18 13 16 12 14 C11.01 13.67 10.02 13.34 9 13 C9 13.99 9 14.98 9 16 C9.66 16.33 10.32 16.66 11 17 C11 17.66 11 18.32 11 19 C11.66 19 12.32 19 13 19 C13.66 20.98 14.32 22.96 15 25 C14.34 25.33 13.68 25.66 13 26 C11.31857842 23.42599399 9.65758114 20.83941054 8 18.25 C7.52304688 17.52039063 7.04609375 16.79078125 6.5546875 16.0390625 C6.10351562 15.33007812 5.65234375 14.62109375 5.1875 13.890625 C4.76855469 13.24125977 4.34960938 12.59189453 3.91796875 11.92285156 C3 10 3 10 3 6 C2.0206121 4.97980427 1.02104551 3.97850195 0 3 C0 2.01 0 1.02 0 0 Z " fill="#4976BB" transform="translate(218,209)"/>
<path d="M0 0 C1.65 0 3.3 0 5 0 C5 8.91 5 17.82 5 27 C3.35 27 1.7 27 0 27 C0 18.09 0 9.18 0 0 Z " fill="#69696A" transform="translate(442,251)"/>
<path d="M0 0 C0.36130668 5.33557541 -0.85724471 9.39452795 -2.6875 14.3125 C-2.93177734 15.04017578 -3.17605469 15.76785156 -3.42773438 16.51757812 C-4.19921875 18.61328125 -4.19921875 18.61328125 -6 22 C-8.70703125 22.98046875 -8.70703125 22.98046875 -11 23 C-12.88239136 17.80002388 -10.76906845 14.02512607 -8.6875 9.25 C-8.36587891 8.47011719 -8.04425781 7.69023437 -7.71289062 6.88671875 C-4.79651495 0 -4.79651495 0 0 0 Z " fill="#7A7A77" transform="translate(66,242)"/>
<path d="M0 0 C1.32 0 2.64 0 4 0 C2.34364039 5.19682826 -0.84011209 9.25779642 -4 13.625 C-5.08354268 15.13787092 -6.16688416 16.65088596 -7.25 18.1640625 C-7.72953125 18.82873535 -8.2090625 19.4934082 -8.703125 20.17822266 C-9.83228794 21.76440749 -10.91997275 23.37995913 -12 25 C-12 22.69 -12 20.38 -12 18 C-11.01 18 -10.02 18 -9 18 C-9.33 16.68 -9.66 15.36 -10 14 C-12.31 14 -14.62 14 -17 14 C-17 14.99 -17 15.98 -17 17 C-17.66 17 -18.32 17 -19 17 C-17.35821735 12.22390502 -14.73453298 8.20617096 -12 4 C-11.4375 5.9375 -11.4375 5.9375 -11 8 C-11.33 8.33 -11.66 8.66 -12 9 C-11.34 9.33 -10.68 9.66 -10 10 C-10 10.66 -10 11.32 -10 12 C-8.35 11.67 -6.7 11.34 -5 11 C-5.33 10.01 -5.66 9.02 -6 8 C-5.01 8 -4.02 8 -3 8 C-2.67 7.01 -2.34 6.02 -2 5 C-1.3400321 3.33066942 -0.67441131 1.6635479 0 0 Z " fill="#5888CD" transform="translate(297,231)"/>
<path d="M0 0 C2.375 0.6875 2.375 0.6875 5 2 C5.33 2.845625 5.66 3.69125 6 4.5625 C6.33 5.366875 6.66 6.17125 7 7 C9.54775306 7.89386164 9.54775306 7.89386164 12 8 C12.33 6.68 12.66 5.36 13 4 C16 7.625 16 7.625 16 11 C16.66 11 17.32 11 18 11 C18.99 13.97 19.98 16.94 21 20 C20.01 20.66 19.02 21.32 18 22 C17.67 21.34 17.34 20.68 17 20 C16.34 20 15.68 20 15 20 C13.04018712 17.74592092 11.19599236 15.4867439 9.375 13.125 C8.859375 12.47402344 8.34375 11.82304687 7.8125 11.15234375 C4 6.26064401 4 6.26064401 4 4 C3.34 4 2.68 4 2 4 C1.34 2.68 0.68 1.36 0 0 Z " fill="#729AD2" transform="translate(294,289)"/>
<path d="M0 0 C1.63001953 0.02707031 1.63001953 0.02707031 3.29296875 0.0546875 C4.54013672 0.08949219 4.54013672 0.08949219 5.8125 0.125 C4.8225 0.455 3.8325 0.785 2.8125 1.125 C2.8125 1.785 2.8125 2.445 2.8125 3.125 C0.10370665 4.47939668 -2.19683268 4.19001451 -5.1875 4.125 C-5.5175 5.445 -5.8475 6.765 -6.1875 8.125 C-6.8475 8.125 -7.5075 8.125 -8.1875 8.125 C-8.620625 9.548125 -8.620625 9.548125 -9.0625 11 C-10.1875 14.125 -10.1875 14.125 -12.1875 16.125 C-12.1875 15.465 -12.1875 14.805 -12.1875 14.125 C-13.5075 14.125 -14.8275 14.125 -16.1875 14.125 C-15.86717594 8.83965294 -12.80023386 5.69279936 -9.1875 2.125 C-5.66070901 -0.22619399 -4.15870515 -0.08943452 0 0 Z " fill="#5E5E5B" transform="translate(391.1875,241.875)"/>
<path d="M0 0 C7.26 0 14.52 0 22 0 C21.67 1.65 21.34 3.3 21 5 C14.07 5 7.14 5 0 5 C-0.33 4.01 -0.66 3.02 -1 2 C-0.67 1.34 -0.34 0.68 0 0 Z " fill="#5C5C5C" transform="translate(434,242)"/>
<path d="M0 0 C2.41734542 -0.08117951 4.83194949 -0.14056926 7.25 -0.1875 C7.93191406 -0.21263672 8.61382812 -0.23777344 9.31640625 -0.26367188 C12.59199289 -0.31137459 14.65348556 -0.21085076 17.484375 1.51171875 C17.98453125 2.00285156 18.4846875 2.49398437 19 3 C18.67 4.32 18.34 5.64 18 7 C17.34 7 16.68 7 16 7 C16.33 8.98 16.66 10.96 17 13 C16.01 13 15.02 13 14 13 C14.061875 12.21625 14.12375 11.4325 14.1875 10.625 C14.125625 9.75875 14.06375 8.8925 14 8 C10.71508627 5.81005752 9.16904361 5.64722661 5.3125 5.375 C3.82169922 5.26285156 3.82169922 5.26285156 2.30078125 5.1484375 C1.54152344 5.09945312 0.78226562 5.05046875 0 5 C0 3.35 0 1.7 0 0 Z " fill="#5D5C5A" transform="translate(332,242)"/>
<path d="M0 0 C0.80244141 0.04833984 1.60488281 0.09667969 2.43164062 0.14648438 C3.68170898 0.2305957 3.68170898 0.2305957 4.95703125 0.31640625 C6.22450195 0.3947168 6.22450195 0.3947168 7.51757812 0.47460938 C9.60189424 0.60414314 11.68576307 0.74083802 13.76953125 0.87890625 C13.76953125 2.52890625 13.76953125 4.17890625 13.76953125 5.87890625 C6.83953125 5.87890625 -0.09046875 5.87890625 -7.23046875 5.87890625 C-7.23046875 4.22890625 -7.23046875 2.57890625 -7.23046875 0.87890625 C-4.35516794 -0.07952735 -2.93996944 -0.18765762 0 0 Z " fill="#838282" transform="translate(94.23046875,257.12109375)"/>
<path d="M0 0 C1.2563903 0.03096771 1.2563903 0.03096771 2.53816223 0.06256104 C3.8302636 0.07105072 3.8302636 0.07105072 5.14846802 0.07971191 C7.90002497 0.10210474 10.65028011 0.15230523 13.40144348 0.20318604 C15.26665905 0.22324734 17.13189503 0.24149875 18.99714661 0.25787354 C23.5699139 0.30197891 28.14170798 0.37102547 32.71394348 0.45318604 C32.33894348 2.89068604 32.33894348 2.89068604 31.71394348 5.45318604 C31.05394348 5.78318604 30.39394348 6.11318604 29.71394348 6.45318604 C29.71394348 5.13318604 29.71394348 3.81318604 29.71394348 2.45318604 C12.38894348 2.94818604 12.38894348 2.94818604 -5.28605652 3.45318604 C-5.61605652 4.44318604 -5.94605652 5.43318604 -6.28605652 6.45318604 C-7.27605652 6.45318604 -8.26605652 6.45318604 -9.28605652 6.45318604 C-9.28605652 7.11318604 -9.28605652 7.77318604 -9.28605652 8.45318604 C-9.94605652 8.45318604 -10.60605652 8.45318604 -11.28605652 8.45318604 C-10.65830085 7.1010969 -9.98185919 5.77154899 -9.28605652 4.45318604 C-8.7798175 3.40566162 -8.7798175 3.40566162 -8.26335144 2.3369751 C-5.64604737 -0.15655721 -3.50967512 -0.00135842 0 0 Z " fill="#275199" transform="translate(289.2860565185547,197.54681396484375)"/>
<path d="M0 0 C3.3 0 6.6 0 10 0 C9.44271087 3.34373475 8.64826111 6.03312999 7 9 C6.01 9 5.02 9 4 9 C3.7834375 10.8253125 3.7834375 10.8253125 3.5625 12.6875 C3.37674071 14.12522598 3.1893238 15.56273906 3 17 C2.87625 17.94875 2.7525 18.8975 2.625 19.875 C2 22 2 22 -1 24 C-1 23.34 -1 22.68 -1 22 C-4.62793998 23.86566488 -4.62793998 23.86566488 -7 27 C-7.66 26.67 -8.32 26.34 -9 26 C-7.05283819 22.99260813 -5.09048016 19.99544574 -3.125 17 C-2.56941406 16.14148438 -2.01382812 15.28296875 -1.44140625 14.3984375 C-0.90644531 13.58632812 -0.37148438 12.77421875 0.1796875 11.9375 C0.67194824 11.18339844 1.16420898 10.42929688 1.67138672 9.65234375 C2.1098291 9.10707031 2.54827148 8.56179687 3 8 C3.66 8 4.32 8 5 8 C5.309375 7.195625 5.61875 6.39125 5.9375 5.5625 C7 3 7 3 8 2 C5.36 1.67 2.72 1.34 0 1 C0 0.67 0 0.34 0 0 Z " fill="#5086D7" transform="translate(295,208)"/>
<path d="M0 0 C2.3203125 0.13671875 2.3203125 0.13671875 5 1 C6.6171875 3.58203125 6.6171875 3.58203125 7.875 6.8125 C8.30554687 7.87082031 8.73609375 8.92914063 9.1796875 10.01953125 C9.98698942 12.95272822 10.09026317 14.22050193 9 17 C7.68 17.33 6.36 17.66 5 18 C4.15321949 16.13103445 3.32313789 14.25449819 2.5 12.375 C2.0359375 11.33085937 1.571875 10.28671875 1.09375 9.2109375 C-0.02767398 5.91875709 -0.207138 3.44884777 0 0 Z " fill="#6C6C6B" transform="translate(35,242)"/>
<path d="M0 0 C7.59 0 15.18 0 23 0 C23 1.32 23 2.64 23 4 C15.41 4 7.82 4 0 4 C0 2.68 0 1.36 0 0 Z " fill="#9C9B99" transform="translate(87,274)"/>
<path d="M0 0 C2.25 -0.0625 2.25 -0.0625 5 1 C7.61985418 4.55382033 9.1416703 8.15273045 8.80078125 12.59765625 C8.31135213 14.78793836 7.74084311 16.88259029 7 19 C4.57940908 16.57940908 3.70405137 14.33913936 2.375 11.1875 C1.70597656 9.63095703 1.70597656 9.63095703 1.0234375 8.04296875 C0.04150401 5.12340314 -0.21399213 3.04657216 0 0 Z " fill="#82817F" transform="translate(41,258)"/>
<path d="M0 0 C0.99 0.33 1.98 0.66 3 1 C2.814375 1.639375 2.62875 2.27875 2.4375 2.9375 C2.293125 3.618125 2.14875 4.29875 2 5 C2.33 5.33 2.66 5.66 3 6 C3.33 5.34 3.66 4.68 4 4 C4.66 4 5.32 4 6 4 C6.33 4.99 6.66 5.98 7 7 C6.34 7 5.68 7 5 7 C5 7.99 5 8.98 5 10 C4.34 10 3.68 10 3 10 C3 11.65 3 13.3 3 15 C2.34 14.67 1.68 14.34 1 14 C-1.09821215 14.39938767 -1.09821215 14.39938767 -3 15 C-3 16.32 -3 17.64 -3 19 C-3.99 19 -4.98 19 -6 19 C-5.41196203 15.97580475 -4.77321882 12.98241547 -4 10 C-3.34 10 -2.68 10 -2 10 C-2 9.01 -2 8.02 -2 7 C-1.34 7 -0.68 7 0 7 C-0.66 5.35 -1.32 3.7 -2 2 C-1.34 2 -0.68 2 0 2 C0 1.34 0 0.68 0 0 Z " fill="#468CF5" transform="translate(280,204)"/>
<path d="M0 0 C3.34119477 1.11373159 3.74464601 1.67074231 5.6875 4.4375 C9.28656762 9.43267949 13.13318878 14.21065007 17 19 C16.34 19.66 15.68 20.32 15 21 C14.67 20.01 14.34 19.02 14 18 C13.34 18 12.68 18 12 18 C11.67 18.99 11.34 19.98 11 21 C10.15841464 19.73461631 9.32700252 18.46246221 8.5 17.1875 C8.0359375 16.47980469 7.571875 15.77210938 7.09375 15.04296875 C6 13 6 13 6 10 C5.34 10 4.68 10 4 10 C0 3.375 0 3.375 0 0 Z " fill="#415C8C" transform="translate(199,181)"/>
<path d="M0 0 C2.52588702 2.36292656 3.88820837 3.66462511 5 7 C4.34 7 3.68 7 3 7 C2.67 7.99 2.34 8.98 2 10 C1.01 10.33 0.02 10.66 -1 11 C-1.495 11.99 -1.99 12.98 -2.5 14 C-2.995 14.99 -3.49 15.98 -4 17 C-4.99 17.33 -5.98 17.66 -7 18 C-7 18.66 -7 19.32 -7 20 C-7.66 19.67 -8.32 19.34 -9 19 C-7.625 16.5 -7.625 16.5 -6 14 C-5.34 14 -4.68 14 -4 14 C-4.33 11.36 -4.66 8.72 -5 6 C-4.360625 5.7525 -3.72125 5.505 -3.0625 5.25 C-0.81258459 4.18437567 -0.81258459 4.18437567 -0.25 1.875 C-0.1675 1.25625 -0.085 0.6375 0 0 Z " fill="#63A2F8" transform="translate(250,247)"/>
<path d="M0 0 C0.99 0 1.98 0 3 0 C3.33 2.97 3.66 5.94 4 9 C3.34 9 2.68 9 2 9 C1.67 9.99 1.34 10.98 1 12 C-2.0625 13.1875 -2.0625 13.1875 -5 14 C-5.85394079 11.01120724 -6.07700926 9.28236729 -5.25 6.25 C-4 4 -4 4 -1 3 C-0.67 2.01 -0.34 1.02 0 0 Z " fill="#4C91F9" transform="translate(303,213)"/>
<path d="M0 0 C3.38419999 0.25068148 4.3123671 1.30542561 6.8125 3.75 C9 7 9 7 8.8125 9.875 C8.544375 10.57625 8.27625 11.2775 8 12 C7.67 12 7.34 12 7 12 C6.67 15.63 6.34 19.26 6 23 C5.34 23 4.68 23 4 23 C4.05800781 22.21496094 4.11601562 21.42992187 4.17578125 20.62109375 C4.50101829 13.04771687 3.73173858 9.82367825 -1 4 C-0.65234375 1.8125 -0.65234375 1.8125 0 0 Z " fill="#5E5E5D" transform="translate(149,245)"/>
<path d="M0 0 C0.66 0.33 1.32 0.66 2 1 C2.33 1.99 2.66 2.98 3 4 C3.66 4.33 4.32 4.66 5 5 C4.78943471 14.85828397 4.78943471 14.85828397 1.4375 18.125 C0.633125 18.74375 -0.17125 19.3625 -1 20 C-1 18.35 -1 16.7 -1 15 C-1.66 14.67 -2.32 14.34 -3 14 C-2.68289063 13.44828125 -2.36578125 12.8965625 -2.0390625 12.328125 C-0.87290025 9.71522011 -0.59954289 7.59420998 -0.375 4.75 C-0.30023438 3.85796875 -0.22546875 2.9659375 -0.1484375 2.046875 C-0.09945313 1.37140625 -0.05046875 0.6959375 0 0 Z " fill="#777674" transform="translate(407,254)"/>
<path d="M0 0 C0.33 0.66 0.66 1.32 1 2 C-1 5 -1 5 -3.1875 5.6875 C-7.67666213 6.18629579 -11.68544383 6.43818539 -16 5 C-16 3.68 -16 2.36 -16 1 C-14.27111445 0.83044205 -12.54187557 0.66448486 -10.8125 0.5 C-9.84957031 0.4071875 -8.88664062 0.314375 -7.89453125 0.21875 C-5.24812333 0.01875156 -2.65239135 -0.03879183 0 0 Z " fill="#868586" transform="translate(348,273)"/>
<path d="M0 0 C0.99 0.33 1.98 0.66 3 1 C2.98839844 1.58007812 2.97679687 2.16015625 2.96484375 2.7578125 C2.91237826 7.2998246 3.08248937 11.52713569 4 16 C1.03 15.67 -1.94 15.34 -5 15 C-5.33 13.35 -5.66 11.7 -6 10 C-5.34 9.67 -4.68 9.34 -4 9 C-4 9.66 -4 10.32 -4 11 C-3.34 11 -2.68 11 -2 11 C-1.690625 10.21625 -1.38125 9.4325 -1.0625 8.625 C0 6 0 6 1 4 C0.34 4 -0.32 4 -1 4 C-0.67 2.68 -0.34 1.36 0 0 Z " fill="#6BA4F7" transform="translate(282,250)"/>
<path d="M0 0 C1.65 0.33 3.3 0.66 5 1 C6.02253647 5.39690684 6.16825506 7.98872814 4 12 C2.375 13.8125 2.375 13.8125 1 15 C0.34 14.67 -0.32 14.34 -1 14 C-0.67 13.01 -0.34 12.02 0 11 C-0.99 10.34 -1.98 9.68 -3 9 C-2.34 9 -1.68 9 -1 9 C-0.67 6.03 -0.34 3.06 0 0 Z " fill="#898887" transform="translate(348,263)"/>
<path d="M0 0 C0.556875 0.53625 1.11375 1.0725 1.6875 1.625 C1.3575 2.285 1.0275 2.945 0.6875 3.625 C0.0275 3.295 -0.6325 2.965 -1.3125 2.625 C-1.126875 3.553125 -0.94125 4.48125 -0.75 5.4375 C-0.3125 8.625 -0.3125 8.625 -1.3125 11.625 C-4.65413899 10.24225283 -6.57016748 8.83455991 -8.3125 5.625 C-8.3125 3 -8.3125 3 -7.3125 0.625 C-4.27752792 -1.34363054 -3.18206635 -1.89203945 0 0 Z " fill="#5E99F5" transform="translate(266.3125,236.375)"/>
<path d="M0 0 C1.32 0 2.64 0 4 0 C5.61976403 2.07954862 6.8933337 3.98217388 8.1875 6.25 C8.54263672 6.83652344 8.89777344 7.42304688 9.26367188 8.02734375 C12.75272617 13.91967453 12.75272617 13.91967453 13 17 C12.34 17.66 11.68 18.32 11 19 C10.71125 18.360625 10.4225 17.72125 10.125 17.0625 C9.17176549 14.84793921 9.17176549 14.84793921 7 14 C7.33 12.68 7.66 11.36 8 10 C7.2575 9.773125 6.515 9.54625 5.75 9.3125 C2.43346164 7.72960669 0.95759487 6.08697652 -1 3 C-0.67 2.01 -0.34 1.02 0 0 Z " fill="#75A2E8" transform="translate(293,276)"/>
<path d="M0 0 C3.66881155 0.70554068 6.70450534 2.27735506 10 4 C9.34 5.32 8.68 6.64 8 8 C8.99 8.33 9.98 8.66 11 9 C13.1385485 11.1385485 13.42655063 12.13275314 14 15 C11.6875 14.8125 11.6875 14.8125 9 14 C7.95107762 12.36368108 6.95093297 10.69514137 6 9 C3.93299345 7.67206394 3.93299345 7.67206394 2 7 C2.33 5.35 2.66 3.7 3 2 C2.01 1.67 1.02 1.34 0 1 C0 0.67 0 0.34 0 0 Z " fill="#7CB0F8" transform="translate(292,282)"/>
<path d="M0 0 C1.5625 1 1.5625 1 3 3 C3.06745073 5.74861744 2.74713966 8.35411443 2 11 C0 13 0 13 -2.625 13.125 C-3.40875 13.08375 -4.1925 13.0425 -5 13 C-4.48474397 7.71862571 -2.74522883 4.42778844 0 0 Z " fill="#878685" transform="translate(185,265)"/>
<path d="M0 0 C1.65 0.33 3.3 0.66 5 1 C5.66 2.98 6.32 4.96 7 7 C6.34 7 5.68 7 5 7 C4.01 7.495 4.01 7.495 3 8 C2.65657551 9.33076989 2.32380126 10.66431979 2 12 C1.34 12.66 0.68 13.32 0 14 C0.33 11.36 0.66 8.72 1 6 C-1.475 7.485 -1.475 7.485 -4 9 C-2.94124926 5.59687262 -1.99097846 2.98646769 0 0 Z " fill="#555453" transform="translate(194,242)"/>
<path d="M0 0 C1.90428283 5.7128485 2.29612176 9.32722858 0 15 C-0.66 14.01 -1.32 13.02 -2 12 C-3.32 12.33 -4.64 12.66 -6 13 C-6.33 11.68 -6.66 10.36 -7 9 C-6.34 8.67 -5.68 8.34 -5 8 C-5 6.68 -5 5.36 -5 4 C-4.360625 3.896875 -3.72125 3.79375 -3.0625 3.6875 C-2.381875 3.460625 -1.70125 3.23375 -1 3 C-0.67 2.01 -0.34 1.02 0 0 Z " fill="#78ABF6" transform="translate(237,276)"/>
<path d="M0 0 C5.28 0 10.56 0 16 0 C15.01 1.32 14.02 2.64 13 4 C9.86328125 4.390625 9.86328125 4.390625 6.3125 4.25 C4.54326172 4.19585937 4.54326172 4.19585937 2.73828125 4.140625 C1.38283203 4.07101562 1.38283203 4.07101562 0 4 C-0.33 3.34 -0.66 2.68 -1 2 C-0.67 1.34 -0.34 0.68 0 0 Z " fill="#868586" transform="translate(133,274)"/>
<path d="M0 0 C0.38281159 5.23175837 -0.78145293 8.37802694 -3 13 C-3.66 12.01 -4.32 11.02 -5 10 C-5.66 10.66 -6.32 11.32 -7 12 C-8.11841676 8.64474971 -7.91538821 8.02910146 -6.6875 4.875 C-6.42324219 4.17117187 -6.15898438 3.46734375 -5.88671875 2.7421875 C-4.42401146 -0.13167793 -3.15678333 0 0 0 Z " fill="#60605F" transform="translate(66,242)"/>
<path d="M0 0 C0.66 0.66 1.32 1.32 2 2 C0.42335255 4.58762749 -1.16094053 7.17001019 -2.75 9.75 C-3.1934375 10.47960937 -3.636875 11.20921875 -4.09375 11.9609375 C-6.42583159 15.73342242 -8.65087124 19.02647447 -12 22 C-11.34 19.03 -10.68 16.06 -10 13 C-9.01 13 -8.02 13 -7 13 C-7 11.35 -7 9.7 -7 8 C-5.68 8 -4.36 8 -3 8 C-2.67 6.35 -2.34 4.7 -2 3 C-1.34 3 -0.68 3 0 3 C0 2.01 0 1.02 0 0 Z " fill="#6181B0" transform="translate(249,269)"/>
<path d="M0 0 C0.66 0 1.32 0 2 0 C1.773125 0.928125 1.54625 1.85625 1.3125 2.8125 C0.63680017 5.96826848 0.63680017 5.96826848 2.4375 7.875 C2.953125 8.24625 3.46875 8.6175 4 9 C3.505 9.391875 3.01 9.78375 2.5 10.1875 C0.54406857 12.55091715 0.75792027 14.01435003 1 17 C-4 11.35483871 -4 11.35483871 -4 7 C-2.86763238 4.47719029 -1.51145518 2.33588527 0 0 Z " fill="#5983C0" transform="translate(276,248)"/>
<path d="M0 0 C-0.33 1.65 -0.66 3.3 -1 5 C3.62 5 8.24 5 13 5 C13.33 3.68 13.66 2.36 14 1 C14 2.65 14 4.3 14 6 C7.07 6 0.14 6 -7 6 C-7 4.35 -7 2.7 -7 1 C-4 0 -4 0 0 0 Z " fill="#515051" transform="translate(94,257)"/>
<path d="M0 0 C1.32 0.33 2.64 0.66 4 1 C4.8125 3.0625 4.8125 3.0625 5 6 C3.62353742 8.57223122 1.95685733 10.83748569 0 13 C-0.33 13 -0.66 13 -1 13 C-1.2236337 11.58566794 -1.42826476 10.16832382 -1.625 8.75 C-1.74101562 7.96109375 -1.85703125 7.1721875 -1.9765625 6.359375 C-2.00319395 3.67847541 -1.36592084 2.27305911 0 0 Z " fill="#709FDD" transform="translate(232,287)"/>
<path d="M0 0 C1.41623216 -0.05447047 2.83308191 -0.09300508 4.25 -0.125 C5.03890625 -0.14820313 5.8278125 -0.17140625 6.640625 -0.1953125 C9.20731941 0.0171622 10.7916067 0.71345895 13 2 C12.01 2 11.02 2 10 2 C10.33 3.65 10.66 5.3 11 7 C10.15695312 6.98839844 9.31390625 6.97679687 8.4453125 6.96484375 C7.34960938 6.95582031 6.25390625 6.94679687 5.125 6.9375 C4.03445313 6.92589844 2.94390625 6.91429687 1.8203125 6.90234375 C-0.95177546 6.80255697 -0.95177546 6.80255697 -3 8 C-3.33 6.68 -3.66 5.36 -4 4 C-1.03 4 1.94 4 5 4 C5 3.34 5 2.68 5 2 C3.35 1.67 1.7 1.34 0 1 C0 0.67 0 0.34 0 0 Z " fill="#484846" transform="translate(389,241)"/>
<path d="M0 0 C2.16874252 0.50603992 3.99967627 0.99983813 6 2 C6.8515625 3.9609375 6.8515625 3.9609375 7.625 6.375 C7.88539063 7.16648438 8.14578125 7.95796875 8.4140625 8.7734375 C9 11 9 11 9 14 C7.68 14 6.36 14 5 14 C4.67 11.36 4.34 8.72 4 6 C3.34 6 2.68 6 2 6 C2 5.34 2 4.68 2 4 C1.01 3.67 0.02 3.34 -1 3 C-0.67 2.01 -0.34 1.02 0 0 Z " fill="#5298F6" transform="translate(227,222)"/>
<path d="M0 0 C0.99 0.33 1.98 0.66 3 1 C-0.15922462 7.03887185 -3.53673345 12.81639613 -8 18 C-8.33 18 -8.66 18 -9 18 C-9 16.02 -9 14.04 -9 12 C-8.01 11.67 -7.02 11.34 -6 11 C-5.67 10.34 -5.34 9.68 -5 9 C-4.34 9 -3.68 9 -3 9 C-2.87625 7.700625 -2.7525 6.40125 -2.625 5.0625 C-2.4140625 2.84765625 -2.4140625 2.84765625 -2 1 C-1.34 0.67 -0.68 0.34 0 0 Z " fill="#477CC1" transform="translate(310,213)"/>
<path d="M0 0 C0.33 0.66 0.66 1.32 1 2 C0.31292969 2.12117188 -0.37414062 2.24234375 -1.08203125 2.3671875 C-2.43361328 2.61855469 -2.43361328 2.61855469 -3.8125 2.875 C-4.70582031 3.03742188 -5.59914063 3.19984375 -6.51953125 3.3671875 C-9.22727846 3.91188449 -9.22727846 3.91188449 -12 6 C-7.71 6 -3.42 6 1 6 C1 6.33 1 6.66 1 7 C-3.62 7 -8.24 7 -13 7 C-13 5.02 -13 3.04 -13 1 C-6.565 0.505 -6.565 0.505 0 0 Z " fill="#585857" transform="translate(345,256)"/>
<path d="M0 0 C7.59 0 15.18 0 23 0 C23 1.32 23 2.64 23 4 C22.34 3.67 21.68 3.34 21 3 C21.33 2.34 21.66 1.68 22 1 C19.77027727 1.11465421 17.54121247 1.24214766 15.3125 1.375 C13.45044922 1.47941406 13.45044922 1.47941406 11.55078125 1.5859375 C8.28237568 1.9670717 5.9877173 2.71282232 3 4 C2.01 4 1.02 4 0 4 C0 2.68 0 1.36 0 0 Z " fill="#7F7E7D" transform="translate(87,274)"/>
<path d="M0 0 C1.32 0 2.64 0 4 0 C4.33 3.63 4.66 7.26 5 11 C2.525 10.01 2.525 10.01 0 9 C-1.0704232 5.40643641 -1.19105377 3.5731613 0 0 Z " fill="#8B8C82" transform="translate(375,256)"/>
<path d="M0 0 C3.3 0 6.6 0 10 0 C9.44271087 3.34373475 8.64826111 6.03312999 7 9 C6.01 9 5.02 9 4 9 C3.67 10.65 3.34 12.3 3 14 C1.68 14.33 0.36 14.66 -1 15 C0.32 12.69 1.64 10.38 3 8 C3.66 8 4.32 8 5 8 C5.309375 7.195625 5.61875 6.39125 5.9375 5.5625 C7 3 7 3 8 2 C5.36 1.67 2.72 1.34 0 1 C0 0.67 0 0.34 0 0 Z " fill="#355895" transform="translate(295,208)"/>
<path d="M0 0 C1.875 0.625 1.875 0.625 4 2 C5.25 5.125 5.25 5.125 6 8 C5.01 8.33 4.02 8.66 3 9 C1.79117904 11.00016466 1.79117904 11.00016466 1 13 C-1.16449052 8.26517698 -1.65651381 4.96954142 0 0 Z " fill="#5D5C5C" transform="translate(198,247)"/>
<path d="M0 0 C0.66 0 1.32 0 2 0 C2.66 0.66 3.32 1.32 4 2 C4.66 2.33 5.32 2.66 6 3 C7.62734766 6.34510352 8 8.18835834 8 12 C7.01 11.67 6.02 11.34 5 11 C5 10.34 5 9.68 5 9 C4.34 9 3.68 9 3 9 C3 8.01 3 7.02 3 6 C2.505 5.505 2.01 5.01 1.5 4.5 C1.005 4.005 0.51 3.51 0 3 C0 2.01 0 1.02 0 0 Z " fill="#498FEC" transform="translate(218,209)"/>
<path d="M0 0 C5.53846154 0.61538462 5.53846154 0.61538462 7.875 2.5625 C8.431875 3.2740625 8.431875 3.2740625 9 4 C8.67 4.99 8.34 5.98 8 7 C5.69 6.34 3.38 5.68 1 5 C1 4.34 1 3.68 1 3 C0.34 2.67 -0.32 2.34 -1 2 C-0.67 1.34 -0.34 0.68 0 0 Z " fill="#616160" transform="translate(399,243)"/>
<path d="M0 0 C0.33 0.66 0.66 1.32 1 2 C1.66 2 2.32 2 3 2 C4.74627478 4.61941217 5.38722388 6.03824877 6 9 C5.01 9 4.02 9 3 9 C2.67 9.66 2.34 10.32 2 11 C1 6.25 1 6.25 1 4 C0.67 4.66 0.34 5.32 0 6 C-0.99 6 -1.98 6 -3 6 C-1.125 1.125 -1.125 1.125 0 0 Z " fill="#6B99DD" transform="translate(236,273)"/>
<path d="M0 0 C0.66 0 1.32 0 2 0 C3.36884358 4.51718381 2.47075246 7.58774263 1 12 C-1.27795022 9.72204978 -2.05219877 8.06212707 -3 5 C-2.625 2.6875 -2.625 2.6875 -2 1 C-1.34 1.33 -0.68 1.66 0 2 C0 1.34 0 0.68 0 0 Z " fill="#878584" transform="translate(47,265)"/>
<path d="M0 0 C1.5 1.3125 1.5 1.3125 3 3 C3 3.99 3 4.98 3 6 C3.66 6 4.32 6 5 6 C8 10.38461538 8 10.38461538 8 13 C6.68 12.34 5.36 11.68 4 11 C4 10.34 4 9.68 4 9 C3.34 9 2.68 9 2 9 C0.02 5.535 0.02 5.535 -2 2 C-1.34 2 -0.68 2 0 2 C0 1.34 0 0.68 0 0 Z " fill="#76889C" transform="translate(324,322)"/>
<path d="M0 0 C0.33 1.32 0.66 2.64 1 4 C5.29 4 9.58 4 14 4 C14.33 4.66 14.66 5.32 15 6 C8.4 6 1.8 6 -5 6 C-5 5.34 -5 4.68 -5 4 C-3.35 3.34 -1.7 2.68 0 2 C0 1.34 0 0.68 0 0 Z " fill="#90BBF5" transform="translate(214,309)"/>
<path d="M0 0 C1.32 0 2.64 0 4 0 C4.33 1.65 4.66 3.3 5 5 C3.56465159 5.2226746 2.12654475 5.42761906 0.6875 5.625 C-0.11300781 5.74101562 -0.91351563 5.85703125 -1.73828125 5.9765625 C-4 6 -4 6 -7 4 C-7 3.34 -7 2.68 -7 2 C-4.69 2.33 -2.38 2.66 0 3 C0 2.01 0 1.02 0 0 Z " fill="#918D8E" transform="translate(202,261)"/>
<path d="M0 0 C1.5625 1.25 1.5625 1.25 3 3 C2.54390065 6.30672029 1.08279047 8.88128841 -0.5625 11.75 C-1.01753906 12.54921875 -1.47257813 13.3484375 -1.94140625 14.171875 C-2.29074219 14.77515625 -2.64007813 15.3784375 -3 16 C-3.99 14.68 -4.98 13.36 -6 12 C-4.68 12 -3.36 12 -2 12 C-1.1558062 8.02022924 -0.55312735 4.02992782 0 0 Z " fill="#5B7AB3" transform="translate(255,254)"/>
<path d="M0 0 C2.475 0.495 2.475 0.495 5 1 C5.33 2.65 5.66 4.3 6 6 C5.01 6 4.02 6 3 6 C3.33 6.99 3.66 7.98 4 9 C3.34 9.66 2.68 10.32 2 11 C0.19769832 7.17010894 -0.19622241 4.21878192 0 0 Z " fill="#585858" transform="translate(35,242)"/>
<path d="M0 0 C0.5625 1.9375 0.5625 1.9375 1 4 C0.67 4.33 0.34 4.66 0 5 C0.66 5.66 1.32 6.32 2 7 C0.75 8.5 0.75 8.5 -1 10 C-2.32 10 -3.64 10 -5 10 C-5 10.99 -5 11.98 -5 13 C-5.66 13 -6.32 13 -7 13 C-5.35821735 8.22390502 -2.73453298 4.20617096 0 0 Z " fill="#517BBB" transform="translate(285,235)"/>
<path d="M0 0 C0.99 0 1.98 0 3 0 C3.33 0.99 3.66 1.98 4 3 C3.34 3 2.68 3 2 3 C1.34 5.31 0.68 7.62 0 10 C-0.99 9.67 -1.98 9.34 -3 9 C-3.33 9.66 -3.66 10.32 -4 11 C-4.8125 9.3125 -4.8125 9.3125 -5 7 C-2.5625 4.375 -2.5625 4.375 0 2 C0 1.34 0 0.68 0 0 Z " fill="#448CF7" transform="translate(313,204)"/>
<path d="M0 0 C0.45375 0.66 0.9075 1.32 1.375 2 C1.91125 2.66 2.4475 3.32 3 4 C3.66 4 4.32 4 5 4 C4.50168276 7.68754757 3.89932357 9.60490662 1 12 C0.34 11.67 -0.32 11.34 -1 11 C-0.67 10.01 -0.34 9.02 0 8 C-0.99 7.34 -1.98 6.68 -3 6 C-2.34 6 -1.68 6 -1 6 C-0.67 4.02 -0.34 2.04 0 0 Z " fill="#656464" transform="translate(348,266)"/>
<path d="M0 0 C1 2 1 2 0.58203125 3.83984375 C-0.93195161 7.96679196 -1.96518469 10.773895 -6 13 C-6.66 12.67 -7.32 12.34 -8 12 C-5.36 8.04 -2.72 4.08 0 0 Z " fill="#6F8BBE" transform="translate(223,292)"/>
<path d="M0 0 C0.99 0 1.98 0 3 0 C3 1.65 3 3.3 3 5 C2.34 4.67 1.68 4.34 1 4 C0.67 5.32 0.34 6.64 0 8 C-1.98 8.33 -3.96 8.66 -6 9 C-5.34 7.68 -4.68 6.36 -4 5 C-3.34 5 -2.68 5 -2 5 C-2 4.01 -2 3.02 -2 2 C-1.34 2 -0.68 2 0 2 C0 1.34 0 0.68 0 0 Z " fill="#80B2FB" transform="translate(228,295)"/>
<path d="M0 0 C2.125 0.375 2.125 0.375 4 1 C4.33 2.32 4.66 3.64 5 5 C2.03 5.66 -0.94 6.32 -4 7 C-2.92598892 4.08482708 -2.22189824 2.22189824 0 0 Z " fill="#6787B5" transform="translate(265,271)"/>
<path d="M0 0 C0.99 0.66 1.98 1.32 3 2 C2.67 3.32 2.34 4.64 2 6 C1.34 6 0.68 6 0 6 C0.33 7.98 0.66 9.96 1 12 C0.01 12 -0.98 12 -2 12 C-1.938125 11.236875 -1.87625 10.47375 -1.8125 9.6875 C-1.74101915 6.95474688 -1.74101915 6.95474688 -3.5 5.1875 C-3.995 4.795625 -4.49 4.40375 -5 4 C-4.360625 3.71125 -3.72125 3.4225 -3.0625 3.125 C-0.84793921 2.17176549 -0.84793921 2.17176549 0 0 Z " fill="#484747" transform="translate(348,243)"/>
<path d="M0 0 C1 3 1 3 0.25 5.5625 C-1 8 -1 8 -4 10 C-5.20450304 12.55183404 -5.20450304 12.55183404 -6 15 C-6.66 14.67 -7.32 14.34 -8 14 C-6.6744419 10.37723685 -5.05653045 7.36494652 -2.875 4.1875 C-2.33617187 3.39730469 -1.79734375 2.60710937 -1.2421875 1.79296875 C-0.83226562 1.20128906 -0.42234375 0.60960937 0 0 Z " fill="#6B89B9" transform="translate(259,279)"/>
<path d="M0 0 C0.66 0.33 1.32 0.66 2 1 C2.07703139 5.54485191 2.01612098 9.55447071 1 14 C1 14.99 1 15.98 1 17 C-0.32 16.34 -1.64 15.68 -3 15 C-2.505 13.824375 -2.01 12.64875 -1.5 11.4375 C0.02999347 7.40779889 0.26741355 4.27861686 0 0 Z M-5 16 C-4.34 16 -3.68 16 -3 16 C-3.33 16.66 -3.66 17.32 -4 18 C-4.33 17.34 -4.66 16.68 -5 16 Z " fill="#4C4B4A" transform="translate(351,247)"/>
<path d="M0 0 C2.475 0.495 2.475 0.495 5 1 C4.01 1.495 4.01 1.495 3 2 C2.67 2.66 2.34 3.32 2 4 C1.34 2.68 0.68 1.36 0 0 Z M-2 1 C-1.67 1.66 -1.34 2.32 -1 3 C-0.01 3.33 0.98 3.66 2 4 C2.33 4.99 2.66 5.98 3 7 C-1.62 6.34 -6.24 5.68 -11 5 C-11 4.67 -11 4.34 -11 4 C-7.92382812 3.70703125 -7.92382812 3.70703125 -4.84765625 3.4140625 C-4.23792969 3.27742187 -3.62820312 3.14078125 -3 3 C-2.67 2.34 -2.34 1.68 -2 1 Z " fill="#434343" transform="translate(146,243)"/>
<path d="M0 0 C3.09592835 3.5087188 4.74194623 6.49197399 6 11 C5.34 11.66 4.68 12.32 4 13 C3.71125 12.360625 3.4225 11.72125 3.125 11.0625 C2.17176549 8.84793921 2.17176549 8.84793921 0 8 C0.33 6.68 0.66 5.36 1 4 C0.34 4 -0.32 4 -1 4 C-0.67 2.68 -0.34 1.36 0 0 Z " fill="#6286B8" transform="translate(300,282)"/>
<path d="M0 0 C0.95465783 2.16967689 1.14401212 3.56328793 0.3984375 5.82421875 C-0.35870385 7.5684743 -1.17609198 9.28627131 -2 11 C-2.66 11 -3.32 11 -4 11 C-4.33 11.66 -4.66 12.32 -5 13 C-5.66 12.67 -6.32 12.34 -7 12 C-6.67 11.01 -6.34 10.02 -6 9 C-5.34 9 -4.68 9 -4 9 C-3.896875 8.443125 -3.79375 7.88625 -3.6875 7.3125 C-2.86866423 4.55823422 -1.54146219 2.41272343 0 0 Z " fill="#6E8AB5" transform="translate(250,293)"/>
<path d="M0 0 C1.11375 0.556875 1.11375 0.556875 2.25 1.125 C1.25 4.125 1.25 4.125 -0.625 5.375 C-2.75 6.125 -2.75 6.125 -5.75 5.125 C-5.09 4.465 -4.43 3.805 -3.75 3.125 C-4.74 2.465 -5.73 1.805 -6.75 1.125 C-4.02098495 -0.69434337 -3.21400584 -1.02263822 0 0 Z " fill="#7E7E7E" transform="translate(151.75,271.875)"/>
<path d="M0 0 C3.96 0 7.92 0 12 0 C12 0.33 12 0.66 12 1 C10.02 1 8.04 1 6 1 C6 1.99 6 2.98 6 4 C4.02 4.33 2.04 4.66 0 5 C0 3.35 0 1.7 0 0 Z " fill="#555454" transform="translate(332,242)"/>
<path d="M0 0 C0.33 0.66 0.66 1.32 1 2 C2.32 2 3.64 2 5 2 C5 2.66 5 3.32 5 4 C4.01 4.495 4.01 4.495 3 5 C3.33 5.99 3.66 6.98 4 8 C2.35 8 0.7 8 -1 8 C-0.67 5.36 -0.34 2.72 0 0 Z " fill="#B3B3B3" transform="translate(49,270)"/>
<path d="M0 0 C0 1.98 0 3.96 0 6 C-1.98 6.99 -1.98 6.99 -4 8 C-4 7.01 -4 6.02 -4 5 C-4.99 4.34 -5.98 3.68 -7 3 C-3.375 0 -3.375 0 0 0 Z " fill="#828282" transform="translate(406,269)"/>
<path d="M0 0 C1.65 0 3.3 0 5 0 C5.042721 1.66611905 5.04063832 3.33382885 5 5 C4 6 4 6 1.4375 6.0625 C0.2309375 6.0315625 0.2309375 6.0315625 -1 6 C-0.67 4.02 -0.34 2.04 0 0 Z " fill="#8C8C8C" transform="translate(181,272)"/>
<path d="M0 0 C1.4540625 0.0309375 1.4540625 0.0309375 2.9375 0.0625 C1.9475 2.0425 0.9575 4.0225 -0.0625 6.0625 C-1.7125 5.7325 -3.3625 5.4025 -5.0625 5.0625 C-3.9375 0.08035714 -3.9375 0.08035714 0 0 Z " fill="#8E8D8C" transform="translate(155.0625,267.9375)"/>
<path d="M0 0 C0.66 0 1.32 0 2 0 C2 3.3 2 6.6 2 10 C1.67 9.34 1.34 8.68 1 8 C-0.32 8 -1.64 8 -3 8 C-2.45276317 4.62537285 -1.9451 2.91765 0 0 Z " fill="#6F6F6D" transform="translate(378,248)"/>
<path d="M0 0 C2.5 2.3125 2.5 2.3125 5 5 C5 5.99 5 6.98 5 8 C4.34 7.67 3.68 7.34 3 7 C3 6.34 3 5.68 3 5 C2.34 5 1.68 5 1 5 C0.67 5.99 0.34 6.98 0 8 C-1.5625 5.625 -1.5625 5.625 -3 3 C-2.67 2.34 -2.34 1.68 -2 1 C-1.34 1.33 -0.68 1.66 0 2 C0 1.34 0 0.68 0 0 Z " fill="#2E5B95" transform="translate(210,194)"/>
<path d="M0 0 C0.99 0 1.98 0 3 0 C2.88652381 1.97986082 2.7589065 3.95891598 2.625 5.9375 C2.52058594 7.59072266 2.52058594 7.59072266 2.4140625 9.27734375 C2.27742188 10.17582031 2.14078125 11.07429688 2 12 C1.01 12.495 1.01 12.495 0 13 C0 8.71 0 4.42 0 0 Z " fill="#8B8B8C" transform="translate(443,252)"/>
<path d="M0 0 C1.32 0.66 2.64 1.32 4 2 C4 2.66 4 3.32 4 4 C3.34 4 2.68 4 2 4 C2 4.99 2 5.98 2 7 C1.01 7.33 0.02 7.66 -1 8 C-1.66 7.67 -2.32 7.34 -3 7 C-1.125 2.25 -1.125 2.25 0 0 Z " fill="#4073C6" transform="translate(276,207)"/>
<path d="M0 0 C1.32 0.66 2.64 1.32 4 2 C2.6875 5.4375 2.6875 5.4375 1 9 C0.01 9.33 -0.98 9.66 -2 10 C-2 10.66 -2 11.32 -2 12 C-2.66 11.67 -3.32 11.34 -4 11 C-2.625 8.5 -2.625 8.5 -1 6 C-0.34 6 0.32 6 1 6 C0.67 4.02 0.34 2.04 0 0 Z " fill="#5879A9" transform="translate(245,255)"/>
<path d="M0 0 C0.75 1.75 0.75 1.75 1 4 C-0.9375 6.25 -0.9375 6.25 -3 8 C-3 7.01 -3 6.02 -3 5 C-3.66 5 -4.32 5 -5 5 C-4.67 3.68 -4.34 2.36 -4 1 C-2.68 0.67 -1.36 0.34 0 0 Z " fill="#477CC8" transform="translate(281,217)"/>
<path d="M0 0 C1.32 1.32 2.64 2.64 4 4 C3.67 4.99 3.34 5.98 3 7 C0.9375 7.6875 0.9375 7.6875 -1 8 C-1 7.34 -1 6.68 -1 6 C-1.66 6 -2.32 6 -3 6 C-3.33 5.01 -3.66 4.02 -4 3 C-3.34 2.67 -2.68 2.34 -2 2 C-1.67 2.66 -1.34 3.32 -1 4 C-0.67 2.68 -0.34 1.36 0 0 Z " fill="#6383AC" transform="translate(314,306)"/>
<path d="M0 0 C2.625 0.375 2.625 0.375 5 1 C4.01 2.485 4.01 2.485 3 4 C0.3984375 4.29296875 0.3984375 4.29296875 -2.625 4.1875 C-4.12933594 4.14689453 -4.12933594 4.14689453 -5.6640625 4.10546875 C-6.82035156 4.05326172 -6.82035156 4.05326172 -8 4 C-7.67 3.34 -7.34 2.68 -7 2 C-6.21625 2.04125 -5.4325 2.0825 -4.625 2.125 C-1.83883881 2.28728734 -1.83883881 2.28728734 0 0 Z " fill="#A6A5A7" transform="translate(399,273)"/>
<path d="M0 0 C2.31 0 4.62 0 7 0 C7 0.99 7 1.98 7 3 C2.38 3 -2.24 3 -7 3 C-7 2.67 -7 2.34 -7 2 C-3.535 1.505 -3.535 1.505 0 1 C0 0.67 0 0.34 0 0 Z " fill="#8C8B8B" transform="translate(100,259)"/>
<path d="M0 0 C2 2 2 2 2.3125 4.375 C1.94914998 7.42714016 1.01544839 8.73262056 -1 11 C-1.33 8.03 -1.66 5.06 -2 2 C-1.34 2 -0.68 2 0 2 C0 1.34 0 0.68 0 0 Z " fill="#73716F" transform="translate(350,247)"/>
<path d="M0 0 C0.66 0.66 1.32 1.32 2 2 C1.9375 4.5 1.9375 4.5 1 7 C-1.5625 8.3125 -1.5625 8.3125 -4 9 C-2.25 2.25 -2.25 2.25 0 0 Z " fill="#626261" transform="translate(191,250)"/>
<path d="M0 0 C-2 2 -2 2 -5 3 C-6.44870619 4.85804317 -6.44870619 4.85804317 -7.6875 7.0625 C-8.12449219 7.79597656 -8.56148438 8.52945313 -9.01171875 9.28515625 C-9.50091797 10.13400391 -9.50091797 10.13400391 -10 11 C-10.33 9.68 -10.66 8.36 -11 7 C-10.34 7 -9.68 7 -9 7 C-8.67 5.02 -8.34 3.04 -8 1 C-5.07175348 0.02391783 -3.04386724 -0.08226668 0 0 Z " fill="#365F9F" transform="translate(294,207)"/>
<path d="M0 0 C1.0625 1.8125 1.0625 1.8125 2 4 C1.67 4.99 1.34 5.98 1 7 C2.65 7.33 4.3 7.66 6 8 C6 8.33 6 8.66 6 9 C3.36 9 0.72 9 -2 9 C-2 8.34 -2 7.68 -2 7 C-2.99 6.67 -3.98 6.34 -5 6 C-4.360625 5.7525 -3.72125 5.505 -3.0625 5.25 C-0.81258459 4.18437567 -0.81258459 4.18437567 -0.25 1.875 C-0.1675 1.25625 -0.085 0.6375 0 0 Z " fill="#5D7DAC" transform="translate(229,297)"/>
<path d="M0 0 C-1.1875 2 -1.1875 2 -3 4 C-5.5625 4.4375 -5.5625 4.4375 -8 4 C-8.66 3.01 -9.32 2.02 -10 1 C-6.59437148 0.22157062 -3.49234244 -0.09978121 0 0 Z " fill="#ADACAD" transform="translate(149,274)"/>
<path d="M0 0 C0.99 0.66 1.98 1.32 3 2 C1.68 3.65 0.36 5.3 -1 7 C-1 6.34 -1 5.68 -1 5 C-1.99 5.99 -2.98 6.98 -4 8 C-4.66 7.67 -5.32 7.34 -6 7 C-4.6875 4.5 -4.6875 4.5 -3 2 C-2.01 2 -1.02 2 0 2 C0 1.34 0 0.68 0 0 Z " fill="#6892D1" transform="translate(243,265)"/>
<path d="M0 0 C3.39417765 3.12621626 5.6062718 5.56541027 7 10 C2.25 8.125 2.25 8.125 0 7 C0 4.69 0 2.38 0 0 Z " fill="#4E75AF" transform="translate(243,237)"/>
<path d="M0 0 C1.8125 0.9375 1.8125 0.9375 2.8125 3.9375 C-0.1575 3.9375 -3.1275 3.9375 -6.1875 3.9375 C-2.77921598 -0.07940617 -2.77921598 -0.07940617 0 0 Z " fill="#8DBAF7" transform="translate(245.1875,311.0625)"/>
<path d="M0 0 C0.99 0 1.98 0 3 0 C3.33 1.65 3.66 3.3 4 5 C3.01 5.66 2.02 6.32 1 7 C0.67 6.34 0.34 5.68 0 5 C-0.66 5 -1.32 5 -2 5 C-2 4.01 -2 3.02 -2 2 C-1.34 2 -0.68 2 0 2 C0 1.34 0 0.68 0 0 Z " fill="#7CA3D4" transform="translate(311,304)"/>
<path d="M0 0 C5.28 0 10.56 0 16 0 C15.34 1.65 14.68 3.3 14 5 C13.67 3.68 13.34 2.36 13 1 C8.71 1 4.42 1 0 1 C0 0.67 0 0.34 0 0 Z " fill="#4A78CC" transform="translate(306,199)"/>
<path d="M0 0 C2.25 0.25 2.25 0.25 4 1 C3.34 2.32 2.68 3.64 2 5 C-0.97 4.505 -0.97 4.505 -4 4 C-2.25 1.9375 -2.25 1.9375 0 0 Z " fill="#9E9C9D" transform="translate(345,273)"/>
<path d="M0 0 C1.32 0.66 2.64 1.32 4 2 C3.67 3.32 3.34 4.64 3 6 C1.0625 5.6875 1.0625 5.6875 -1 5 C-1.33 4.01 -1.66 3.02 -2 2 C-1.34 1.34 -0.68 0.68 0 0 Z " fill="#979697" transform="translate(383,271)"/>
<path d="M0 0 C0.33 0.66 0.66 1.32 1 2 C1.66 2.33 2.32 2.66 3 3 C2.01 4.485 2.01 4.485 1 6 C-1.625 6.1875 -1.625 6.1875 -4 6 C-2.25 1.125 -2.25 1.125 0 0 Z " fill="#4C83DA" transform="translate(274,213)"/>
<path d="M0 0 C0.99 0 1.98 0 3 0 C1.6302836 3.99500618 -0.25722422 6.80009492 -3 10 C-2.67 7.69 -2.34 5.38 -2 3 C-1.34 3 -0.68 3 0 3 C0 2.01 0 1.02 0 0 Z " fill="#6B87B0" transform="translate(262,289)"/>
<path d="M0 0 C0.33 0 0.66 0 1 0 C1.0825 0.94875 1.165 1.8975 1.25 2.875 C1.65074923 6.10461791 1.65074923 6.10461791 4.0625 7.375 C4.701875 7.58125 5.34125 7.7875 6 8 C6 8.99 6 9.98 6 11 C2.65836101 9.61725283 0.74233252 8.20955991 -1 5 C-0.6875 2.25 -0.6875 2.25 0 0 Z " fill="#4F6A94" transform="translate(259,237)"/>
<path d="M0 0 C0.66 0 1.32 0 2 0 C2 1.98 2 3.96 2 6 C1.01 6.33 0.02 6.66 -1 7 C-1 6.34 -1 5.68 -1 5 C-1.66 5 -2.32 5 -3 5 C-3 4.34 -3 3.68 -3 3 C-2.34 3 -1.68 3 -1 3 C-0.67 2.01 -0.34 1.02 0 0 Z " fill="#7CAEF8" transform="translate(240,270)"/>
<path d="M0 0 C1.32 0 2.64 0 4 0 C2.87548273 2.9719385 1.77706209 5.33440687 0 8 C-1.125 2.25 -1.125 2.25 0 0 Z " fill="#646462" transform="translate(380,248)"/>
<path d="M0 0 C0.99 0.33 1.98 0.66 3 1 C2.67 3.97 2.34 6.94 2 10 C1.67 10 1.34 10 1 10 C1 8.02 1 6.04 1 4 C0.34 4 -0.32 4 -1 4 C-0.67 2.68 -0.34 1.36 0 0 Z " fill="#689AED" transform="translate(282,250)"/>
<path d="M0 0 C1 3 1 3 1 6 C0.34 6 -0.32 6 -1 6 C-1.33 6.99 -1.66 7.98 -2 9 C-2.66 9 -3.32 9 -4 9 C-2.94124926 5.59687262 -1.99097846 2.98646769 0 0 Z " fill="#4A71B3" transform="translate(269,219)"/>
<path d="M0 0 C2.5 2.3125 2.5 2.3125 5 5 C5 5.99 5 6.98 5 8 C4.01 8 3.02 8 2 8 C0.23537317 4.91190305 0 3.76687864 0 0 Z " fill="#466FAA" transform="translate(231,221)"/>
<path d="M0 0 C0.99 0 1.98 0 3 0 C1.6302836 3.99500618 -0.25722422 6.80009492 -3 10 C-2.39009109 6.44219804 -1.4216319 3.3171411 0 0 Z " fill="#406DA8" transform="translate(316,204)"/>
<path d="M0 0 C3.65316671 1.24976756 4.78065836 1.67098753 7 5 C6.67 5.99 6.34 6.98 6 8 C5.34 6.68 4.68 5.36 4 4 C3.34 4 2.68 4 2 4 C1.34 2.68 0.68 1.36 0 0 Z " fill="#627FA8" transform="translate(294,289)"/>
<path d="M0 0 C0.99 0.66 1.98 1.32 3 2 C2.67 4.31 2.34 6.62 2 9 C1.67 8.34 1.34 7.68 1 7 C0.34 6.67 -0.32 6.34 -1 6 C-0.01 5.67 0.98 5.34 2 5 C2 4.34 2 3.68 2 3 C0.68 3 -0.64 3 -2 3 C-2 2.34 -2 1.68 -2 1 C-1.34 0.67 -0.68 0.34 0 0 Z " fill="#929290" transform="translate(52,269)"/>
<path d="M0 0 C0.95465783 2.16967689 1.14401212 3.56328793 0.3984375 5.82421875 C-0.35870385 7.5684743 -1.17609198 9.28627131 -2 11 C-2.66 10.34 -3.32 9.68 -4 9 C-4 8.01 -4 7.02 -4 6 C-3.01 6 -2.02 6 -1 6 C-0.67 4.02 -0.34 2.04 0 0 Z " fill="#60605E" transform="translate(411,261)"/>
<path d="M0 0 C0.7734375 0.7115625 0.7734375 0.7115625 1.5625 1.4375 C4.66782675 3.42809407 7.36632504 3.65060818 11 4 C11 4.33 11 4.66 11 5 C9.56260487 5.02712066 8.12506137 5.04645067 6.6875 5.0625 C5.48673828 5.07990234 5.48673828 5.07990234 4.26171875 5.09765625 C2 5 2 5 -1 4 C-0.67 2.68 -0.34 1.36 0 0 Z " fill="#525051" transform="translate(194,263)"/>
<path d="M0 0 C3.08089673 2.77280706 4.68775452 5.06326356 6 9 C5.01 9 4.02 9 3 9 C0 2.25 0 2.25 0 0 Z " fill="#4F6999" transform="translate(284,258)"/>
<path d="M0 0 C0.66 0 1.32 0 2 0 C2.6875 1.6875 2.6875 1.6875 3 4 C1.5625 6.75 1.5625 6.75 0 9 C-1.36623674 6.26752652 -1.128426 4.01801098 -1 1 C-0.67 0.67 -0.34 0.34 0 0 Z " fill="#72716F" transform="translate(193,248)"/>
<path d="M0 0 C0.66 1.32 1.32 2.64 2 4 C1.01 5.485 1.01 5.485 0 7 C-2.625 7.1875 -2.625 7.1875 -5 7 C-4.34 6.01 -3.68 5.02 -3 4 C-2.01 4 -1.02 4 0 4 C0 2.68 0 1.36 0 0 Z " fill="#82A5DB" transform="translate(251,306)"/>
<path d="M0 0 C2.4375 0.75 2.4375 0.75 5 2 C5.6875 4.0625 5.6875 4.0625 6 6 C6.66 6.33 7.32 6.66 8 7 C7.01 7 6.02 7 5 7 C3.61328125 5.46875 3.61328125 5.46875 2.3125 3.5 C1.87550781 2.8503125 1.43851562 2.200625 0.98828125 1.53125 C0.49908203 0.77328125 0.49908203 0.77328125 0 0 Z " fill="#5778A1" transform="translate(301,298)"/>
<path d="M0 0 C0.99 0.33 1.98 0.66 3 1 C1.6875 3.5 1.6875 3.5 0 6 C-0.99 6 -1.98 6 -3 6 C-1.125 1.125 -1.125 1.125 0 0 Z " fill="#89B2F5" transform="translate(226,290)"/>
<path d="M0 0 C4.75 1.875 4.75 1.875 7 3 C6.34 4.32 5.68 5.64 5 7 C3.35 4.69 1.7 2.38 0 0 Z " fill="#6081AA" transform="translate(288,281)"/>
<path d="M0 0 C0.99 0 1.98 0 3 0 C3.66 2.31 4.32 4.62 5 7 C3.0625 6.3125 3.0625 6.3125 1 5 C0.25 2.375 0.25 2.375 0 0 Z " fill="#7DA9E6" transform="translate(286,275)"/>
<path d="M0 0 C0.66 0 1.32 0 2 0 C2.33 2.64 2.66 5.28 3 8 C2.01 7.67 1.02 7.34 0 7 C0 4.69 0 2.38 0 0 Z " fill="#696968" transform="translate(409,251)"/>
<path d="M0 0 C1.485 0.99 1.485 0.99 3 2 C3.1875 4.625 3.1875 4.625 3 7 C1.68 7.33 0.36 7.66 -1 8 C-1.08226668 4.95613276 -0.97608217 2.92824652 0 0 Z " fill="#6E6D6B" transform="translate(198,247)"/>
<path d="M0 0 C0.99 0 1.98 0 3 0 C2.6875 2.375 2.6875 2.375 2 5 C1.01 5.66 0.02 6.32 -1 7 C-1.04254356 5.00045254 -1.04080783 2.99958364 -1 1 C-0.67 0.67 -0.34 0.34 0 0 Z " fill="#598BD2" transform="translate(302,224)"/>
<path d="M0 0 C0.33 0.99 0.66 1.98 1 3 C-0.9375 6.1875 -0.9375 6.1875 -3 9 C-3.89674777 6.48910624 -4.13172674 5.35464891 -3.1875 2.8125 C-2 1 -2 1 0 0 Z " fill="#6283AA" transform="translate(257,300)"/>
<path d="M0 0 C-0.33 0.66 -0.66 1.32 -1 2 C-3.06640625 2.4140625 -3.06640625 2.4140625 -5.5625 2.625 C-6.38878906 2.69976562 -7.21507813 2.77453125 -8.06640625 2.8515625 C-9.02353516 2.92503906 -9.02353516 2.92503906 -10 3 C-6.88378718 -0.11621282 -4.21175599 -0.11383124 0 0 Z " fill="#A5A4A3" transform="translate(100,275)"/>
<path d="M0 0 C0.99 0.33 1.98 0.66 3 1 C2.34 3.64 1.68 6.28 1 9 C0.34 9 -0.32 9 -1 9 C-0.67 6.03 -0.34 3.06 0 0 Z " fill="#898886" transform="translate(409,258)"/>
<path d="M0 0 C0.66 0.33 1.32 0.66 2 1 C0.7508258 4.45925163 -0.67527795 7.14693203 -3 10 C-3.33 9.34 -3.66 8.68 -4 8 C-3.0625 5.375 -3.0625 5.375 -2 3 C-1.34 3 -0.68 3 0 3 C0 2.01 0 1.02 0 0 Z " fill="#67A2F7" transform="translate(280,245)"/>
<path d="M0 0 C2.31 0.33 4.62 0.66 7 1 C6.67 1.99 6.34 2.98 6 4 C3.69 3.34 1.38 2.68 -1 2 C-0.67 1.34 -0.34 0.68 0 0 Z " fill="#6B6B6B" transform="translate(401,246)"/>
<path d="M0 0 C4 4.75 4 4.75 4 7 C2.68 6.34 1.36 5.68 0 5 C0 4.34 0 3.68 0 3 C-0.66 2.67 -1.32 2.34 -2 2 C-1.34 2 -0.68 2 0 2 C0 1.34 0 0.68 0 0 Z " fill="#404955" transform="translate(328,328)"/>
<path d="M0 0 C0.33 0.99 0.66 1.98 1 3 C0.01 4.485 0.01 4.485 -1 6 C-2.32 6 -3.64 6 -5 6 C-5 5.34 -5 4.68 -5 4 C-3.35 3.34 -1.7 2.68 0 2 C0 1.34 0 0.68 0 0 Z " fill="#98B9E7" transform="translate(214,309)"/>
<path d="M0 0 C0.66 1.32 1.32 2.64 2 4 C1.34 4 0.68 4 0 4 C0 4.66 0 5.32 0 6 C-1.98 6.99 -1.98 6.99 -4 8 C-2.87548273 5.0280615 -1.77706209 2.66559313 0 0 Z " fill="#708AB1" transform="translate(214,305)"/>
<path d="M0 0 C0.99 0.33 1.98 0.66 3 1 C2.25 2.9375 2.25 2.9375 1 5 C-1.125 5.75 -1.125 5.75 -3 6 C-2.01 4.02 -1.02 2.04 0 0 Z " fill="#7396CB" transform="translate(231,280)"/>
<path d="M0 0 C0.66 0.66 1.32 1.32 2 2 C0.68 4.31 -0.64 6.62 -2 9 C-2.33 9 -2.66 9 -3 9 C-3 7.35 -3 5.7 -3 4 C-2.01 3.67 -1.02 3.34 0 3 C0 2.01 0 1.02 0 0 Z " fill="#607CA5" transform="translate(249,269)"/>
<path d="M0 0 C2 3 2 3 1.625 5.1875 C1.41875 5.785625 1.2125 6.38375 1 7 C-0.32 7.33 -1.64 7.66 -3 8 C-3 7.01 -3 6.02 -3 5 C-2.34 5 -1.68 5 -1 5 C-0.67 3.35 -0.34 1.7 0 0 Z " fill="#71706F" transform="translate(46,260)"/>
<path d="M0 0 C0.66 0 1.32 0 2 0 C2.33 1.98 2.66 3.96 3 6 C0.525 5.01 0.525 5.01 -2 4 C-1.34 2.68 -0.68 1.36 0 0 Z " fill="#979895" transform="translate(377,261)"/>
<path d="M0 0 C-0.33 0.66 -0.66 1.32 -1 2 C-4.96 1.67 -8.92 1.34 -13 1 C-13 0.67 -13 0.34 -13 0 C-11.39679026 -0.19551338 -9.79237014 -0.38111983 -8.1875 -0.5625 C-7.29417969 -0.66691406 -6.40085937 -0.77132813 -5.48046875 -0.87890625 C-3 -1 -3 -1 0 0 Z " fill="#929090" transform="translate(349,261)"/>
<path d="M0 0 C2.52588702 2.36292656 3.88820837 3.66462511 5 7 C3.68 6.67 2.36 6.34 1 6 C0.67 4.02 0.34 2.04 0 0 Z " fill="#5781BE" transform="translate(250,247)"/>
<path d="M0 0 C0.99 0.33 1.98 0.66 3 1 C2.67 1.99 2.34 2.98 2 4 C1.01 4 0.02 4 -1 4 C-1 4.66 -1 5.32 -1 6 C-1.66 6 -2.32 6 -3 6 C-2 4 -1 2 0 0 Z " fill="#3F70B4" transform="translate(281,200)"/>
</svg>
